<?xml version="1.0" standalone="no"?>
<!DOCTYPE svg PUBLIC "-//W3C//DTD SVG 1.1//EN" "http://www.w3.org/Graphics/SVG/1.1/DTD/svg11.dtd" >
<svg xmlns="http://www.w3.org/2000/svg">
<metadata>
This is a custom SVG webfont generated by Font Squirrel.
</metadata>
<defs>
<font id="webfontUIiIbhSR" horiz-adv-x="580" >
<font-face units-per-em="1000" ascent="800" descent="-200" />
<missing-glyph horiz-adv-x="225" />
<glyph unicode=" "  horiz-adv-x="225" />
<glyph unicode="&#x09;" horiz-adv-x="225" />
<glyph unicode="&#xa0;" horiz-adv-x="225" />
<glyph unicode="!" horiz-adv-x="296" d="M195 221h-102l-30 466l160 23zM143 -13q-34 0 -57.5 24t-23.5 59q0 34 24 58.5t59 24.5q34 0 58 -24.5t24 -58.5t-24.5 -58.5t-59.5 -24.5z" />
<glyph unicode="&#x22;" horiz-adv-x="520" d="M314 708h126v-282h-126v282zM82 708h126v-282h-126v282z" />
<glyph unicode="#" horiz-adv-x="564" d="M114 201h-84v90h96l17 126h-84v90h96l28 201h97l-28 -201h99l28 201h97l-28 -201h84v-90h-96l-17 -126h84v-90h-96l-28 -201h-97l28 201h-99l-28 -201h-97zM339 417h-99l-17 -126h99z" />
<glyph unicode="$" horiz-adv-x="572" d="M337 713q108 -11 186 -67l-66 -100q-88 53 -162 53q-43 0 -70 -22.5t-27 -57.5q0 -27 17 -42.5t60 -27.5l84 -23q85 -23 130.5 -76.5t45.5 -130.5q0 -96 -66 -158.5t-177 -73.5v-81h-86v81q-104 9 -195 61l52 109q107 -56 191 -56q122 0 122 95q0 67 -91 90l-77 21 q-101 28 -137 88q-29 47 -29 106q0 86 57 144t152 69v72h86v-73z" />
<glyph unicode="%" horiz-adv-x="838" d="M552 695h95l-364 -695h-95zM196 705q81 0 128 -50q44 -44 44 -122q0 -82 -47 -128q-48 -46 -125 -46t-123 46.5t-46 125.5q0 78 46.5 126t122.5 48zM635 336q81 0 128 -50q44 -44 44 -122q0 -82 -47 -128q-48 -46 -125 -46t-123 46.5t-46 125.5q0 78 46.5 126t122.5 48z M195 631q-37 0 -50 -30q-9 -22 -9 -67q0 -56 11 -75q16 -25 50 -25q32 0 46 24t14 77q0 61 -20 80q-16 16 -42 16zM634 262q-37 0 -50 -30q-9 -22 -9 -67q0 -56 11 -75q16 -25 50 -25q32 0 46 24t14 77q0 61 -20 80q-16 16 -42 16z" />
<glyph unicode="&#x26;" horiz-adv-x="715" d="M490 340h112v-6q0 -113 -32 -186l149 -148h-186l-42 42q-26 -22 -60 -36q-51 -20 -131 -20q-120 0 -185.5 49.5t-65.5 139.5q0 115 125 173q-50 39 -65 71q-16 34 -16 79q0 74 56 121t144 47q89 0 146 -44t57 -114q0 -57 -34 -96q-28 -31 -88 -62l-9 -5l116 -110 q8 30 9 98v7zM290 412q66 34 66 94q0 29 -17.5 48t-44.5 19q-29 0 -46.5 -18t-17.5 -47q0 -22 10 -38.5t42 -49.5zM246 275q-54 -33 -54 -92q0 -47 29.5 -73t82.5 -26q72 0 105 34z" />
<glyph unicode="'" horiz-adv-x="296" d="M85 708h126v-282h-126v282z" />
<glyph unicode="(" horiz-adv-x="350" d="M315 781l35 -79q-35 -25 -54 -44q-53 -53 -75 -121q-17 -49 -23 -131q-2 -58 -2 -82q0 -71 8 -154q11 -101 47 -164q19 -34 41 -55t60 -42l-35 -78q-73 25 -128 78.5t-86 128.5q-31 77 -40 206q-3 44 -3 78q0 107 20 190q22 93 90 167q62 66 145 102z" />
<glyph unicode=")" horiz-adv-x="344" d="M28 -168l-34 79q30 22 54 44q53 53 76 121q16 49 22 131q3 45 3 84q0 84 -8 152q-12 104 -46 164q-20 34 -41.5 55t-59.5 42l35 78q74 -26 129 -79t85 -129q30 -78 39 -206q2 -28 2 -75q0 -118 -19 -193q-23 -92 -91 -166q-61 -67 -146 -102z" />
<glyph unicode="*" horiz-adv-x="482" d="M291 570l131 43l30 -95l-131 -42l83 -114l-83 -61l-84 115l-81 -110l-81 61l84 109l-133 46l32 95l131 -47v138h102v-138z" />
<glyph unicode="+" horiz-adv-x="632" d="M36 366h211v211h126v-211h211v-126h-211v-211h-126v211h-211v126z" />
<glyph unicode="," horiz-adv-x="267" d="M86 -145l-53 56q33 7 52.5 23t19.5 34q0 16 -26 32q-39 23 -39 70q0 36 25.5 61t61.5 25q44 0 72 -34t28 -86q0 -65 -39 -115t-102 -66z" />
<glyph unicode="-" horiz-adv-x="338" d="M50 332h240v-116h-240v116z" />
<glyph unicode="." horiz-adv-x="267" d="M133 160q37 0 63 -25.5t26 -61.5q0 -37 -26 -63t-62 -26q-37 0 -62.5 26t-25.5 63q0 36 25.5 61.5t61.5 25.5z" />
<glyph unicode="/" horiz-adv-x="480" d="M332 764h88l-268 -918h-88z" />
<glyph unicode="0" horiz-adv-x="548" d="M277 522q109 0 173 -72.5t64 -193.5q0 -120 -66 -194t-172 -74q-109 0 -173 72.5t-64 193.5q0 120 66 194t172 74zM367 253q0 98 -23.5 134.5t-66.5 36.5q-91 0 -91 -167q0 -98 23.5 -134.5t66.5 -36.5q91 0 91 167z" />
<glyph unicode="1" horiz-adv-x="416" d="M206 522h90v-413h80v-109h-317v109h108v259q-61 -38 -120 -58l-34 72z" />
<glyph unicode="2" horiz-adv-x="541" d="M499 112l-29 -112h-417v122q5 3 36.5 17.5t66.5 34.5q99 56 136 94t37 75q0 32 -22 49.5t-58 17.5q-58 0 -136 -64l-80 83q111 99 252 99q89 0 142 -45t53 -119q0 -92 -94 -162q-16 -12 -40 -26.5t-54 -31t-43 -24.5l-26 -13q37 5 97 5h179z" />
<glyph unicode="3" horiz-adv-x="509" d="M113 148v112q32 -4 69 -4q111 0 111 79q0 34 -21.5 54.5t-63.5 20.5q-81 0 -148 -56l-70 85q44 34 93 54q73 30 143 30q94 0 155 -49.5t61 -124.5q0 -89 -66 -129q-16 -10 -37 -18q56 -19 87.5 -59t31.5 -93q0 -103 -98.5 -168.5t-253.5 -65.5q-45 0 -83 5l-32 93 q36 -7 76 -7q104 0 169 43t65 111q0 57 -44 76q-29 12 -93 12q-37 0 -51 -1z" />
<glyph unicode="4" horiz-adv-x="548" d="M216 518h138l-144 -324l-11 -22.5t-19 -36.5t-15 -22q10 2 21 2h113l24 -1q-1 13 -1 18q0 38 7 107l11 117l105 24v-177q0 -41 -1 -59l-2 -30q20 1 32 1h42v-115h-45l-31 2q5 -13 5 -36v-141l-127 -16v169l2 25q-12 -3 -32 -3h-265v91z" />
<glyph unicode="5" horiz-adv-x="494" d="M83 512h341l-20 -114h-196l-14 -139q26 5 47 5q93 0 151.5 -54t58.5 -140q0 -111 -88.5 -182.5t-226.5 -71.5q-39 0 -76 7l-29 99q53 -14 94 -14q80 0 130.5 41t50.5 105q0 48 -30 77t-79 29q-56 0 -146 -28z" />
<glyph unicode="6" horiz-adv-x="561" d="M427 719l29 -96q-205 -66 -260 -231q40 33 107 33q91 0 152.5 -61t61.5 -150q0 -97 -67.5 -162.5t-166.5 -65.5q-110 0 -180.5 79t-70.5 203q0 78 26 144q34 89 112 162q44 42 119.5 84.5t137.5 60.5zM181 284q-3 -18 -3 -60q0 -64 26 -99.5t73 -35.5q45 0 72 33.5 t27 89.5q0 48 -24.5 76.5t-66.5 28.5q-47 0 -104 -33z" />
<glyph unicode="7" horiz-adv-x="459" d="M6 391l30 121h417l-22 -117q-151 -227 -210 -419q-10 -33 -29 -139l-147 -37q30 125 72 240q36 100 88 201q44 87 93 154q-15 -4 -40 -4h-252z" />
<glyph unicode="8" horiz-adv-x="600" d="M394 355q59 -17 111 -64q44 -41 44 -108q0 -68 -45 -120.5t-118 -70.5q-48 -12 -105 -12q-98 0 -158 37q-89 54 -89 155q0 56 33 103t85 66q-38 11 -69 55q-30 43 -30 96q0 83 66.5 134t173.5 51q101 0 165.5 -48.5t64.5 -125.5q0 -51 -35.5 -91.5t-93.5 -56.5zM293 409 q81 41 81 98q0 72 -91 72q-41 0 -66.5 -20.5t-25.5 -54.5q0 -46 61 -76q14 -7 41 -19zM247 288q-64 -37 -64 -106q0 -47 30.5 -75t82.5 -28q45 0 73.5 24t28.5 62q0 47 -38 72q-40 26 -113 51z" />
<glyph unicode="9" horiz-adv-x="564" d="M136 -205l-73 82q81 21 161.5 86t102.5 128q-41 -19 -81 -19q-92 0 -153.5 64t-61.5 159q0 101 68.5 167.5t173.5 66.5q112 0 175.5 -72.5t63.5 -200.5q0 -202 -164 -338q-100 -84 -212 -123zM357 217q10 34 10 75q0 63 -26 98.5t-71 35.5q-43 0 -68.5 -34.5t-25.5 -92.5 q0 -54 27.5 -86.5t73.5 -32.5q44 0 80 37z" />
<glyph unicode=":" horiz-adv-x="304" d="M152 455q36 0 61.5 -25.5t25.5 -61.5t-25.5 -61t-61.5 -25q-35 0 -60 25t-25 60q0 36 25 62t60 26zM152 157q36 -1 61 -26.5t25 -62.5q0 -35 -25.5 -59.5t-61.5 -24.5q-35 0 -60.5 24.5t-25.5 59.5q0 37 25.5 63.5t61.5 25.5z" />
<glyph unicode=";" horiz-adv-x="312" d="M149 456q36 0 62 -25.5t26 -61.5q0 -35 -25 -60.5t-60 -25.5q-36 0 -61.5 25t-25.5 60q0 36 24.5 62t59.5 26zM108 -145l-52 56q32 8 51.5 23.5t19.5 33.5q0 16 -23 30q-42 25 -42 70q0 38 25 63t63 25q43 0 71.5 -34t28.5 -87q0 -64 -40 -114.5t-102 -65.5z" />
<glyph unicode="&#x3c;" horiz-adv-x="1258" d="M1206 297q0 -35 -24.5 -60t-59.5 -25t-59.5 25t-24.5 60t25 59.5t59 24.5q35 0 59.5 -24.5t24.5 -59.5zM958 297q0 -35 -24.5 -60t-59.5 -25t-60 25t-25 60t25 59.5t60 24.5q34 0 59 -24.5t25 -59.5zM478 667q0 -35 -24.5 -60t-59.5 -25t-59.5 25t-24.5 60t25 59.5 t59 24.5t59 -24.5t25 -59.5zM709 297q0 -35 -24.5 -60t-59.5 -25t-59.5 25t-24.5 60t24.5 59.5t59.5 24.5t59.5 -24.5t24.5 -59.5zM345 482q0 -35 -24.5 -60t-59.5 -25t-59.5 25t-24.5 60t24.5 59.5t59.5 24.5t59.5 -25t24.5 -59zM461 297q0 -35 -25 -60t-60 -25t-59.5 25 t-24.5 60t25 59.5t59 24.5q35 0 60 -24.5t25 -59.5zM212 297q0 -35 -24.5 -60t-59.5 -25t-59.5 25t-24.5 60t24.5 59.5t59.5 24.5q34 0 59 -24.5t25 -59.5zM345 112q0 -35 -24.5 -60t-59.5 -25t-59.5 25t-24.5 60t24.5 59.5t59.5 24.5t59.5 -25t24.5 -59zM478 -73 q0 -35 -24.5 -60t-59.5 -25t-59.5 25t-24.5 60t25 59.5t59 24.5t59 -24.5t25 -59.5z" />
<glyph unicode="=" horiz-adv-x="666" d="M59 462h548v-126h-548v126zM59 270h548v-126h-548v126z" />
<glyph unicode="&#x3e;" horiz-adv-x="1258" d="M44 297q0 35 24.5 59.5t59.5 24.5q34 0 59 -24.5t25 -59.5t-24.5 -60t-59.5 -25t-59.5 25t-24.5 60zM292 297q0 35 25 59.5t59 24.5q35 0 60 -24.5t25 -59.5t-25 -60t-60 -25t-59.5 25t-24.5 60zM772 667q0 35 25 59.5t59 24.5t59 -24.5t25 -59.5t-24.5 -60t-59.5 -25 t-59.5 25t-24.5 60zM541 297q0 35 24.5 59.5t59.5 24.5t59.5 -24.5t24.5 -59.5t-24.5 -60t-59.5 -25t-59.5 25t-24.5 60zM905 482q0 34 24.5 59t59.5 25t59.5 -24.5t24.5 -59.5t-24.5 -60t-59.5 -25t-59.5 25t-24.5 60zM789 297q0 35 25 59.5t60 24.5q34 0 59 -24.5 t25 -59.5t-24.5 -60t-59.5 -25t-60 25t-25 60zM1038 297q0 35 25 59.5t59 24.5q35 0 59.5 -24.5t24.5 -59.5t-24.5 -60t-59.5 -25t-59.5 25t-24.5 60zM905 112q0 34 24.5 59t59.5 25t59.5 -24.5t24.5 -59.5t-24.5 -60t-59.5 -25t-59.5 25t-24.5 60zM772 -73q0 35 25 59.5 t59 24.5t59 -24.5t25 -59.5t-24.5 -60t-59.5 -25t-59.5 25t-24.5 60z" />
<glyph unicode="?" horiz-adv-x="486" d="M211 -13q-34 0 -57.5 24t-23.5 59q0 34 24 58.5t59 24.5q34 0 58 -24.5t24 -58.5t-24.5 -58.5t-59.5 -24.5zM256 221h-115l-5 26q-11 60 10.5 106t77.5 86l14.5 10t15.5 11t13 11t12.5 14.5t7 15.5t3.5 19q0 35 -23 52t-59 17q-12 0 -22.5 -1.5t-20.5 -5.5t-17 -6.5 t-16 -8.5t-12 -8.5t-12 -8.5l-8 -7l-61 86q27 28 76.5 52t117.5 24q80 0 135 -45.5t55 -121.5q0 -32 -8.5 -58t-25 -44.5t-28 -28t-30.5 -21.5q-75 -48 -77 -130q0 -13 2 -35z" />
<glyph unicode="@" horiz-adv-x="800" d="M568 337q-9 -43 -9 -66q0 -28 27 -28q35 0 60.5 38t25.5 111q0 117 -71.5 180.5t-189.5 63.5q-124 0 -200.5 -79.5t-76.5 -203.5q0 -129 82.5 -205t211.5 -76q112 0 189 61h110q-53 -73 -133.5 -112t-173.5 -39q-162 0 -275 105.5t-113 265.5q0 159 111.5 266t270.5 107 q90 0 169.5 -37t132 -114t52.5 -178q0 -60 -17.5 -106.5t-43 -71.5t-58 -41t-57 -20.5t-46.5 -4.5q-39 0 -58.5 16t-20.5 38h-2q-52 -54 -128 -54q-64 0 -104 47t-40 121q0 92 55 158.5t145 66.5q80 0 108 -57h2l8 45h94zM401 456q-45 0 -72.5 -35.5t-27.5 -88.5 q0 -89 69 -89q57 0 81 35.5t24 85.5q0 41 -19 66.5t-55 25.5z" />
<glyph unicode="A" d="M218 697h151l219 -697h-150l-49 165h-204l-49 -165h-146zM219 281h136q-23 73 -38 140l-28 123l-33 -134q-20 -77 -37 -129z" />
<glyph unicode="B" horiz-adv-x="612" d="M84 695h235q64 0 101.5 -11t69.5 -39q57 -50 57 -124q0 -72 -47 -116q-25 -24 -64 -36q66 -19 102 -63.5t36 -111.5q0 -77 -47.5 -132.5t-134.5 -59.5q-44 -2 -89 -2h-219v695zM222 576v-159h83q42 0 60 9q14 8 25 29t11 42q0 23 -11 43t-29 27q-22 9 -58 9h-81zM224 302 v-188h91q45 0 65 16q36 27 36 81q0 30 -14 54t-37 31q-20 6 -54 6h-87z" />
<glyph unicode="C" horiz-adv-x="548" d="M526 655l-63 -95q-53 39 -111 39q-35 0 -67 -16t-51 -44q-39 -58 -39 -179q0 -134 29 -186q43 -78 134 -78q63 0 119 45l64 -88q-79 -65 -193 -65q-143 0 -227 96q-84 94 -84 249q0 128 47 216q40 76 111 118.5t155 42.5q52 0 99.5 -15t76.5 -40z" />
<glyph unicode="D" horiz-adv-x="636" d="M84 695h140q65 0 121 -4q91 -8 152 -69q95 -94 95 -277q0 -147 -70 -241q-68 -92 -169 -100q-52 -4 -100 -4h-169v695zM226 585v-471h75q69 0 101.5 53.5t32.5 164.5q0 138 -35 195q-35 58 -110 58h-64z" />
<glyph unicode="E" horiz-adv-x="536" d="M84 695h396l-18 -114h-238v-161h199v-114h-197v-186h263v-120h-405v695z" />
<glyph unicode="F" horiz-adv-x="478" d="M84 695h377l-16 -113h-221v-159h177v-114h-177v-309h-140v695z" />
<glyph unicode="G" horiz-adv-x="644" d="M573 626l-74 -87q-66 54 -145 54q-63 0 -100 -35q-59 -56 -59 -224q0 -146 52 -198q41 -39 109 -39q46 0 79 17v158h-106l-18 114h269v-332q-105 -62 -231 -62q-155 0 -237 106q-74 94 -74 243q0 219 145 316q73 49 169 49q129 0 221 -80z" />
<glyph unicode="H" horiz-adv-x="649" d="M84 695h139v-270h200v270h142v-695h-142v310h-200v-310h-139v695z" />
<glyph unicode="I" horiz-adv-x="314" d="M84 695h146v-695h-146v695z" />
<glyph unicode="J" horiz-adv-x="306" d="M81 695h142v-560q0 -96 -10 -136q-14 -58 -60.5 -100t-101.5 -63l-65 72q61 37 81 84q14 32 14 128v575z" />
<glyph unicode="K" horiz-adv-x="615" d="M84 695h143v-317l198 317h172l-222 -322l247 -373h-184l-211 363v-363h-143v695z" />
<glyph unicode="L" horiz-adv-x="483" d="M84 695h143v-579h249l-25 -116h-367v695z" />
<glyph unicode="M" horiz-adv-x="845" d="M128 695h179l91 -348q16 -61 24 -110q9 52 25 113l94 345h178l62 -695h-137l-26 371q-5 73 -5 116q-11 -53 -26 -107l-110 -380h-119l-99 365q-19 72 -28 123q0 -53 -5 -125l-24 -363h-139z" />
<glyph unicode="N" horiz-adv-x="651" d="M84 695h155l133 -278q51 -108 76 -197q-9 98 -11 191l-3 284h133v-695h-146l-119 266q-77 172 -94 228q4 -51 7 -197l4 -297h-135v695z" />
<glyph unicode="O" horiz-adv-x="668" d="M339 704q139 0 219 -94.5t80 -258.5q0 -118 -40 -203.5t-115 -126.5q-58 -32 -139 -32q-79 0 -132.5 23t-93.5 75q-80 103 -80 258q0 113 41 198.5t116 126.5q63 34 144 34zM337 596q-35 0 -64 -16.5t-44 -44.5q-35 -66 -35 -190q0 -181 62 -225q33 -24 83 -24 q73 0 105.5 59t32.5 192q0 103 -18 161q-10 33 -41 60.5t-81 27.5z" />
<glyph unicode="P" horiz-adv-x="577" d="M84 695h183q83 0 121.5 -8t71.5 -26q100 -55 100 -180q0 -69 -31.5 -122t-88.5 -80q-49 -23 -139 -23h-77v-256h-140v695zM224 582v-212h73q43 0 61 7t32 29q17 27 17 72q0 49 -25 76.5t-69 27.5h-89z" />
<glyph unicode="Q" horiz-adv-x="666" d="M500 32q15 -5 62 -35q48 -29 86 -29l62 5l-37 -91q-20 -12 -62 -12q-53 0 -128 49q-73 49 -141 70q-78 0 -131.5 23t-93.5 75q-80 103 -80 258q0 113 41 199t116 126q63 34 144 34q139 0 219 -94.5t80 -258.5q0 -111 -36.5 -194t-100.5 -125zM336 596q-35 0 -64 -16.5 t-44 -44.5q-35 -66 -35 -190q0 -181 62 -225q33 -24 83 -24q73 0 105.5 59t32.5 192q0 103 -18 161q-10 33 -41 60.5t-81 27.5z" />
<glyph unicode="R" horiz-adv-x="607" d="M84 695h259q92 0 148 -56t56 -148q0 -78 -45.5 -134.5t-109.5 -57.5q18 -14 29 -29q40 -50 167 -270h-165l-65 114q-54 97 -75.5 129.5t-39.5 40.5q-11 5 -22 6v-290h-137v695zM221 583v-188h47q79 0 105 23q27 25 27 70q0 67 -50 85q-27 10 -79 10h-50z" />
<glyph unicode="S" horiz-adv-x="584" d="M530 646l-66 -100q-88 53 -162 53q-43 0 -70 -22.5t-27 -57.5q0 -27 17 -42.5t60 -27.5l84 -23q85 -23 130.5 -76.5t45.5 -130.5q0 -106 -78.5 -170t-208.5 -64q-127 0 -237 63l52 109q107 -56 191 -56q122 0 122 95q0 65 -91 90l-77 21q-101 28 -137 88q-29 47 -29 106 q0 95 69.5 155t179.5 60q135 0 232 -70z" />
<glyph unicode="T" horiz-adv-x="518" d="M16 695h501l-23 -116h-166v-579h-142v579h-170v116z" />
<glyph unicode="U" horiz-adv-x="660" d="M80 695h143v-457q0 -60 12 -83q25 -48 95 -48q46 0 73.5 21.5t32.5 59.5q2 15 2 62v445h142v-468q0 -76 -11 -109q-17 -51 -75.5 -91t-160.5 -40q-164 0 -223 93q-17 27 -23.5 54t-6.5 77v484z" />
<glyph unicode="V" horiz-adv-x="590" d="M-9 695h153l115 -362q23 -79 32 -121q12 57 40 139l118 344h147l-242 -700h-127z" />
<glyph unicode="W" horiz-adv-x="856" d="M11 695h148l60 -274q12 -58 21.5 -115t12.5 -86l3 -28q13 117 36 222l62 281h153l64 -311q13 -65 30 -184q8 83 38 231l57 264h147l-168 -701h-153l-62 283q-22 97 -33 202q-12 -98 -33 -200l-58 -285h-159z" />
<glyph unicode="X" horiz-adv-x="579" d="M25 695h171l94 -187l95 187h167l-181 -314l216 -381h-169l-125 245l-124 -245h-174l218 372z" />
<glyph unicode="Y" horiz-adv-x="552" d="M-16 695h168l89 -190q22 -46 35 -89q19 47 37 87l90 192h165l-222 -409v-286h-146v286z" />
<glyph unicode="Z" horiz-adv-x="525" d="M79 695h416v-101l-258 -435l-36 -49q41 4 69 4h234l-36 -114h-434v98l256 423l43 63q-29 -5 -71 -5h-214z" />
<glyph unicode="[" horiz-adv-x="284" d="M227 642h-90v-708h90v-90h-210v888h210v-90z" />
<glyph unicode="\" horiz-adv-x="407" d="M291 -53l-300 779l114 35l299 -779z" />
<glyph unicode="]" horiz-adv-x="296" d="M56 -66h90v708h-90v90h210v-888h-210v90z" />
<glyph unicode="^" horiz-adv-x="666" d="M261 708h146l180 -365h-142l-111 238l-112 -238h-141z" />
<glyph unicode="_" horiz-adv-x="500" d="M0 -125v50h500v-50h-500z" />
<glyph unicode="`" horiz-adv-x="338" d="M295 631l-41 -74l-224 100l58 104z" />
<glyph unicode="a" horiz-adv-x="516" d="M48 451q35 22 83 42q71 30 140 30q64 0 107 -23t58 -66q10 -30 9 -92l-3 -172v-9q0 -42 9.5 -62.5t38.5 -42.5l-71 -82q-52 22 -72 62q-18 -18 -31 -27q-39 -28 -103 -28q-85 0 -130.5 41.5t-45.5 118.5q0 176 246 176q19 0 30 -1v21q0 44 -12 60t-48 16q-62 0 -148 -58z M311 224h-6q-71 0 -98 -16.5t-27 -61.5q0 -30 16.5 -48.5t42.5 -18.5q38 0 70 35z" />
<glyph unicode="b" horiz-adv-x="547" d="M200 741q5 -44 5 -91v-121q0 -33 -3 -45q38 41 109 41q94 0 148.5 -70t54.5 -190q0 -160 -95 -235q-50 -40 -112 -40q-71 0 -114 47q-5 -23 -14 -37h-120q13 30 13 109v474q0 89 -9 126zM207 373v-236q37 -33 75 -33q49 0 65 40q15 35 15 118q0 61 -6 87q-15 65 -73 65 q-39 0 -76 -41z" />
<glyph unicode="c" horiz-adv-x="440" d="M417 468l-65 -88q-43 40 -81 40q-45 0 -66 -41t-21 -131q0 -95 26 -129q23 -29 60 -29q44 0 92 42l8 7l61 -81q-24 -24 -47 -38q-55 -32 -125 -32q-106 0 -164.5 69.5t-58.5 194.5q0 165 105 237q56 38 127 38q56 0 99 -23q21 -11 50 -36z" />
<glyph unicode="d" horiz-adv-x="552" d="M474 719v-532q0 -145 19 -187h-120q-5 10 -8 30q-49 -43 -118 -43q-97 0 -154.5 70.5t-57.5 189.5q0 120 61 195t158 75q55 0 91 -29q-4 22 -4 76v176zM343 377q-37 33 -73 33q-45 0 -65.5 -39t-20.5 -125q0 -82 20 -114t73 -32q39 0 66 33v244z" />
<glyph unicode="e" horiz-adv-x="510" d="M418 137l52 -80q-87 -71 -193 -71q-110 0 -176 72t-66 193q0 132 64 203q62 69 161 69q96 0 148 -54q68 -69 68 -224v-31h-296v-4q0 -59 28 -91.5t80 -32.5q68 0 130 51zM182 312h155v6q0 52 -16 77q-19 30 -59 30q-38 0 -59 -29t-21 -82v-2z" />
<glyph unicode="f" horiz-adv-x="310" d="M318 626q-35 17 -55 17q-26 0 -41 -15.5t-15 -42.5v-73h130l-34 -92h-95v-420h-131v420h-46v92h49q-5 35 -5 70q0 76 43 117.5t122 41.5q64 0 121 -32z" />
<glyph unicode="g" horiz-adv-x="552" d="M520 541l56 -85q-41 -38 -94 -38q-11 0 -35 3q30 -36 30 -84q0 -66 -53.5 -109t-135.5 -43q-10 0 -20 1q-53 -25 -53 -42q0 -12 22 -12l72 -1q106 -1 155 -46q44 -41 44 -109q0 -62 -41 -106q-62 -66 -202 -66q-135 0 -194 55q-42 39 -42 91q0 28 12 52h124 q-6 -14 -6 -33q0 -63 96 -63q57 0 84 17q33 20 33 52q0 59 -94 61l-57 1q-88 1 -123 16q-39 15 -39 67q0 30 18.5 50.5t75.5 35.5q-110 28 -110 142q0 79 59 126t157 47q39 0 92 -13q44 -11 63 -11q57 0 106 44zM258 423q-38 0 -59 -20t-21 -56q0 -73 79 -73q82 0 82 73 q0 36 -21.5 56t-59.5 20z" />
<glyph unicode="h" horiz-adv-x="558" d="M59 709l137 32q9 -42 9 -125v-102q0 -9 -1 -25t-1 -18q26 25 66 40t79 15q49 0 85 -19.5t48 -53.5q13 -38 13 -95v-358h-131v344q0 38 -12 54t-40 16q-54 0 -106 -47v-367h-136v592q0 82 -10 117z" />
<glyph unicode="i" horiz-adv-x="274" d="M70 503l134 21v-524h-134v503zM139 736q34 0 57.5 -24t23.5 -59t-24 -59t-59 -24q-34 0 -58 24.5t-24 58.5t24.5 58.5t59.5 24.5z" />
<glyph unicode="j" horiz-adv-x="279" d="M74 491l133 32v-509q0 -110 -38 -159q-36 -47 -104 -75l-56 74q30 25 49 58q16 29 16 98v481zM142 737q34 0 58.5 -24t24.5 -58q0 -35 -24.5 -59.5t-59.5 -24.5q-34 0 -58 24t-24 58q0 35 24.5 59.5t58.5 24.5z" />
<glyph unicode="k" horiz-adv-x="514" d="M339 512h161l-163 -214l201 -298h-158l-172 290zM62 710l135 33q8 -51 8 -166v-577h-134v577q0 73 -9 133z" />
<glyph unicode="l" horiz-adv-x="303" d="M192 740q7 -39 7 -133v-399q0 -98 9 -114q8 -14 27 -14q8 0 15 2l23 -80q-36 -14 -80 -14q-43 0 -75 19t-44 51q-12 31 -12 115v382q0 90 -7 154z" />
<glyph unicode="m" horiz-adv-x="792" d="M52 488l121 33q11 -18 18 -52q54 52 125 52q64 0 104 -42q10 -10 20 -25q66 67 145 67q64 0 101 -32q22 -19 30 -45.5t8 -79.5v-364h-130v338q0 46 -8 59.5t-34 13.5q-41 0 -89 -43v-368h-127v333q0 48 -9 63.5t-37 15.5q-44 0 -88 -39v-373h-131v357q0 97 -19 131z" />
<glyph unicode="n" horiz-adv-x="542" d="M52 491l119 34q19 -33 19 -64q38 26 59 38q42 22 92 22q43 0 77 -20.5t46 -53.5q10 -27 10 -73v-374h-132v333q0 44 -9.5 59.5t-35.5 15.5q-42 0 -93 -46v-362h-134v371q0 69 -18 120z" />
<glyph unicode="o" horiz-adv-x="527" d="M262 522q109 0 174 -77q59 -69 59 -187q0 -125 -64 -198q-63 -71 -169 -71q-104 0 -167 72t-63 193t63 194.5t167 73.5zM264 423q-51 0 -69 -52q-14 -42 -14 -114q0 -89 17 -129q9 -20 28 -31t40 -11q44 0 63.5 41t19.5 132q0 103 -27 137q-21 27 -58 27z" />
<glyph unicode="p" horiz-adv-x="544" d="M63 501l119 21q8 -28 9 -48q17 21 52 34.5t74 13.5q55 0 101 -31q95 -64 95 -221q0 -82 -15.5 -131t-55.5 -92q-55 -58 -137 -58q-61 0 -107 27q2 -12 2 -42v-160l-129 -34v592q0 80 -8 129zM201 125q36 -30 74 -30q50 0 71 37t21 125q0 77 -13 113q-15 43 -64 43 q-52 0 -89 -39v-249z" />
<glyph unicode="q" horiz-adv-x="550" d="M373 513h111q-12 -52 -12 -151v-550l-127 -34v194q0 36 3 52q-40 -36 -102 -36q-109 0 -168 83q-26 37 -36.5 76.5t-10.5 100.5q0 129 52 196q24 30 50 47q53 34 110 34q40 0 76 -15.5t44 -36.5q1 21 10 40zM345 378q-33 35 -77 35q-35 0 -58 -23q-32 -32 -32 -125 q0 -111 28 -141q24 -26 62 -26q44 0 77 39v241z" />
<glyph unicode="r" horiz-adv-x="352" d="M50 492l120 32q18 -32 21 -73q34 47 76 65q18 8 44 8q24 0 50 -11l-37 -118q-19 10 -39 10q-45 0 -82 -43v-362h-134v342q0 100 -19 150z" />
<glyph unicode="s" horiz-adv-x="472" d="M419 478l-44 -90q-73 37 -126 37q-29 0 -47 -13.5t-18 -36.5q0 -20 14.5 -31.5t49.5 -20.5l62 -16q71 -18 102 -58q28 -35 28 -87q0 -80 -60.5 -129t-158.5 -49q-94 0 -207 59l48 98q95 -58 170 -58q29 0 48.5 16.5t19.5 41.5q0 26 -19 40.5t-60 22.5l-60 11 q-25 4 -52.5 19.5t-41.5 32.5q-29 35 -29 92q0 75 54.5 121t143.5 46q85 0 183 -48z" />
<glyph unicode="t" horiz-adv-x="334" d="M315 512l-34 -92h-86v-257q0 -49 12 -65.5t46 -16.5q14 0 48 10l17 -80q-56 -23 -109 -23q-51 0 -88.5 20.5t-49.5 54.5q-9 25 -9 79v278h-51v92h51q0 83 5 121l136 34q-8 -75 -8 -155h120z" />
<glyph unicode="u" horiz-adv-x="532" d="M59 500l132 25v-329q0 -62 11 -84q12 -24 47 -24q25 0 50 15t33 34v360l128 27v-391q0 -56 31 -93l-95 -54q-27 19 -40 50q-51 -49 -135 -49q-54 0 -96 23t-55 60q-11 32 -11 102v328z" />
<glyph unicode="v" horiz-adv-x="468" d="M-12 504l137 17l74 -231q20 -62 33 -123q7 54 31 130l69 215h140l-187 -512h-111z" />
<glyph unicode="w" horiz-adv-x="712" d="M9 503l133 15l42 -197l29 -159q13 91 37 178l48 172h126l41 -169l38 -181q14 101 28 167l39 183h138l-146 -512h-123l-46 176q-21 78 -29 124q-4 21 -8 51q-4 -28 -12 -66q-10 -44 -44 -180l-26 -105h-125z" />
<glyph unicode="x" horiz-adv-x="501" d="M23 488l139 39q45 -75 69 -125q8 -16 16 -34q11 30 45 100q13 27 24 44h158l-152 -236l184 -276h-170l-54 94q-5 9 -21.5 41t-18.5 35q-12 -35 -51 -99l-43 -71h-172l189 273z" />
<glyph unicode="y" horiz-adv-x="497" d="M-6 504l137 16l89 -299l27 -106q10 57 16 82q9 37 20 71l77 244h141l-186 -520q-26 -73 -48 -110.5t-50 -58.5q-51 -37 -124 -47l-46 88q57 16 83 34q21 15 38 42q14 23 29 60h-34l-48 144z" />
<glyph unicode="z" horiz-adv-x="456" d="M44 512h380v-92l-226 -327h235l-32 -93h-377v83l241 335h-221v94z" />
<glyph unicode="{" horiz-adv-x="390" d="M368 -156h-105q-57 0 -93 36t-36 110v172q0 22 -12.5 37t-32.5 21t-35 8.5t-28 2.5v114q13 0 28 2.5t35 8.5t32.5 21t12.5 37v173q0 74 35 109.5t94 35.5h105v-114h-49q-22 0 -36 -6t-19.5 -16.5t-7.5 -19.5t-2 -22v-161q0 -33 -9 -54.5t-26.5 -31t-30.5 -13t-34 -5.5v-2 q21 -1 34.5 -4.5t30.5 -13t26 -31t9 -54.5v-162q0 -13 2 -22t7.5 -19.5t19.5 -16.5t36 -6h49v-114z" />
<glyph unicode="|" horiz-adv-x="222" d="M48 756h126v-774h-126v774z" />
<glyph unicode="}" horiz-adv-x="392" d="M29 732h108q55 0 90.5 -36t35.5 -110v-172q0 -22 12.5 -37t32 -21t34.5 -8.5t29 -2.5v-114q-14 0 -29 -2.5t-34.5 -8.5t-32 -21t-12.5 -37v-173q0 -74 -35 -109.5t-94 -35.5h-105v114h49q22 0 36 6t19.5 16.5t7.5 19.5t2 22v161q0 33 9 54.5t26.5 31t30.5 13t34 5.5v2 q-21 1 -34.5 4.5t-30.5 13t-26 31t-9 54.5v162q0 13 -2 22t-7.5 19.5t-19.5 16.5t-36 6h-49v114z" />
<glyph unicode="~" horiz-adv-x="666" d="M564 292q-45 -86 -125 -86q-39 0 -111 32l-21.5 9.5t-23 10l-20 8t-20.5 6.5t-17 2q-19 0 -37 -12.5t-25.5 -22l-25.5 -33.5l-36 108q45 86 125 86q39 0 111 -32l21.5 -9.5t23 -10l20 -8t20.5 -6.5t17 -2q19 0 37 12.5t25.5 22l25.5 33.5z" />
<glyph unicode="&#xa1;" horiz-adv-x="274" d="M84 472h102l30 -466l-160 -23zM136 706q34 0 57.5 -24t23.5 -59t-24.5 -59t-58.5 -24t-58 24.5t-24 58.5t24.5 58.5t59.5 24.5z" />
<glyph unicode="&#xa2;" horiz-adv-x="452" d="M314 521q26 0 60 -17q21 -11 50 -36l-65 -88q-43 40 -81 40q-45 0 -66 -41t-21 -131q0 -95 26 -129q23 -29 60 -29q44 0 92 42l8 7l61 -81q-24 -24 -47 -38q-35 -21 -77 -28v-103h-94v103q-84 14 -130.5 82t-46.5 178q0 165 105 237q31 21 72 31v97h94v-96z" />
<glyph unicode="&#xa3;" horiz-adv-x="608" d="M57 114h96v198h-96v102h96v71q0 96 66.5 165.5t181.5 69.5q134 0 209 -68l-100 -107q-43 43 -91 43q-62 0 -89 -36t-27 -89v-49h156v-102h-156v-198h253v-114h-499v114z" />
<glyph unicode="&#xa4;" horiz-adv-x="447" d="M362 171l47 -71l-118 -69q-30 50 -40 70q-9 -2 -30 -2q-20 0 -38 3l-13 -27l-24 -44l-114 69l44 68q-26 37 -26 101q0 60 28 102l-47 71l118 69q30 -50 40 -70q16 2 30 2q25 0 38 -3l13 27l24 44l114 -69l-44 -68q27 -38 27 -103q0 -57 -29 -100zM218 369q-37 0 -50 -30 q-9 -22 -9 -67q0 -58 11 -75q16 -25 50 -25q32 0 46 24t14 77q0 60 -20 80q-16 16 -42 16z" />
<glyph unicode="&#xa5;" horiz-adv-x="566" d="M135 415l-148 280h168l89 -190q22 -46 35 -89q19 47 37 87l90 192h165l-153 -280h103v-103h-158l-14 -26v-50h172v-103h-172v-133h-146v133h-169v103h169v50l-14 26h-155v103h101z" />
<glyph unicode="&#xa7;" horiz-adv-x="614" d="M393 545q-10 28 -35.5 44.5t-56.5 16.5q-26 0 -45.5 -14t-19.5 -39q0 -27 32 -48t78 -38.5t92 -38.5t78 -59t32 -88q0 -40 -23.5 -76t-60.5 -54q55 -44 55 -119q0 -62 -40 -105t-93.5 -60.5t-112.5 -17.5q-174 0 -233 126l128 63q8 -34 40 -51.5t69 -17.5q30 0 55 12 t25 40q0 22 -22.5 39.5t-55.5 29.5t-72.5 30t-72.5 37.5t-55.5 55t-22.5 80.5q0 94 87 148q-63 42 -63 115q0 55 33.5 95t81 57.5t100.5 17.5q73 0 134.5 -25.5t89.5 -83.5zM376 192q34 20 34 61q0 42 -65 72l-116 55q-35 -20 -35 -59q0 -17 6 -30t21.5 -23.5t23 -14.5 t29.5 -14z" />
<glyph unicode="&#xa8;" horiz-adv-x="499" d="M148 712q31 0 53 -22.5t22 -54.5q0 -31 -22.5 -54t-54.5 -23q-31 0 -53.5 23t-22.5 54t23 54t55 23zM434 635q0 -31 -23 -54t-54 -23t-53.5 22.5t-22.5 54.5t23 54.5t55 22.5q31 0 53 -22.5t22 -54.5z" />
<glyph unicode="&#xa9;" horiz-adv-x="800" d="M400 726q154 0 263 -109t109 -263t-109 -263t-263 -109t-263 109t-109 263t109 263t263 109zM400 72q112 0 191 83t79 199t-79 199t-191 83t-191 -83t-79 -199t79 -199t191 -83zM528 198q-57 -43 -122 -43q-83 0 -132.5 52t-49.5 139q0 91 50 149t133 58q66 0 112 -38 l-46 -66q-37 25 -65 25q-75 0 -75 -114q0 -68 18.5 -98t60.5 -30q37 0 67 28z" />
<glyph unicode="&#xaa;" horiz-adv-x="404" d="M42 718q19 12 63 31q53 23 105 23q100 0 123 -67q8 -22 7 -69l-2 -129v-7q0 -31 7 -46.5t29 -31.5l-48 -62q-47 19 -59 47q-16 -15 -24 -21q-29 -21 -77 -21q-63 0 -97.5 31.5t-34.5 88.5q0 132 185 132h22v15q0 33 -9 45t-36 12q-48 0 -111 -43zM22 309h365v-78h-365v78 zM240 548h-5q-53 0 -73.5 -12.5t-20.5 -46.5q0 -22 12.5 -36t32.5 -14q28 0 52 26z" />
<glyph unicode="&#xab;" horiz-adv-x="538" d="M179 249l116 -173l-91 -61l-159 234l159 234l91 -61zM421 249l116 -173l-91 -61l-159 234l159 234l91 -61z" />
<glyph unicode="&#xac;" horiz-adv-x="584" d="M497 58h-123v140h-318v109h441v-249z" />
<glyph unicode="&#xae;" horiz-adv-x="800" d="M400 726q154 0 263 -109t109 -263t-109 -263t-263 -109t-263 109t-109 263t109 263t263 109zM400 72q112 0 191 83t79 199t-79 199t-191 83t-191 -83t-79 -199t79 -199t191 -83zM568 171h-115l-40 65q-43 77 -54 86v-151h-97v382h153q56 0 89.5 -32t33.5 -85 q0 -42 -25 -71t-63 -33q5 -2 9 -4.5t8.5 -6.5l7.5 -6.5t7.5 -9t6 -8t7 -9t5.5 -8.5zM435 435q0 39 -49 39h-27v-77h26q28 0 39 9t11 29z" />
<glyph unicode="&#xaf;" horiz-adv-x="395" d="M40 744h314v-78h-314v78z" />
<glyph unicode="&#xb0;" horiz-adv-x="395" d="M193 705q78 0 128 -50q44 -44 44 -122q0 -82 -47 -128q-48 -46 -125 -46t-123 46.5t-46 125.5q0 78 46.5 126t122.5 48zM192 631q-37 0 -50 -30q-9 -22 -9 -67q0 -58 11 -75q16 -25 50 -25q32 0 46 24t14 77q0 61 -20 80q-16 16 -42 16z" />
<glyph unicode="&#xb1;" horiz-adv-x="475" d="M447 283h-150v-143h-123v143h-150v113h150v137h123v-137h150v-113zM445 0h-419v113h419v-113z" />
<glyph unicode="&#xb2;" horiz-adv-x="541" d="M499 112l-29 -112h-417v122q5 3 36.5 17.5t66.5 34.5q99 56 136 94t37 75q0 32 -22 49.5t-58 17.5q-58 0 -136 -64l-80 83q111 99 252 99q89 0 142 -45t53 -119q0 -92 -94 -162q-16 -12 -40 -26.5t-54 -31t-43 -24.5l-26 -13q37 5 97 5h179z" />
<glyph unicode="&#xb3;" horiz-adv-x="509" d="M113 148v112q32 -4 69 -4q111 0 111 79q0 34 -21.5 54.5t-63.5 20.5q-81 0 -148 -56l-70 85q44 34 93 54q73 30 143 30q94 0 155 -49.5t61 -124.5q0 -89 -66 -129q-16 -10 -37 -18q56 -19 87.5 -59t31.5 -93q0 -103 -98.5 -168.5t-253.5 -65.5q-45 0 -83 5l-32 93 q36 -7 76 -7q104 0 169 43t65 111q0 57 -44 76q-29 12 -93 12q-37 0 -51 -1z" />
<glyph unicode="&#xb4;" horiz-adv-x="338" d="M246 761l58 -104l-224 -100l-41 74z" />
<glyph unicode="&#xb5;" horiz-adv-x="537" d="M67 500l132 25v-329q0 -62 11 -84q12 -24 47 -24q25 0 50 15t33 34v360l128 27v-391q0 -56 31 -93l-95 -54q-27 19 -40 50q-51 -49 -135 -49q-19 0 -35 14q2 -20 2 -31v-156l-129 -34v720z" />
<glyph unicode="&#xb6;" horiz-adv-x="616" d="M278 338q-96 0 -155.5 51t-59.5 131q0 97 61.5 142.5t171.5 45.5h269v-834h-90v762h-107v-762h-90v464z" />
<glyph unicode="&#xb7;" horiz-adv-x="304" d="M147 364q37 0 62.5 -26.5t25.5 -64.5q0 -36 -26.5 -62t-63.5 -26t-62.5 26t-25.5 63t26.5 63.5t63.5 26.5z" />
<glyph unicode="&#xb8;" horiz-adv-x="429" d="M274 6l-14 -38q36 -4 54 -25.5t18 -53.5q0 -38 -29 -63t-80 -25q-43 0 -87 24l30 63q34 -15 52 -15q10 0 17.5 6t7.5 12q0 20 -25 20l-27 -6l-13 20l24 87z" />
<glyph unicode="&#xb9;" horiz-adv-x="416" d="M206 522h90v-413h80v-109h-317v109h108v259q-61 -38 -120 -58l-34 72z" />
<glyph unicode="&#xba;" horiz-adv-x="416" d="M205 764q83 0 131 -57q44 -53 44 -141q0 -92 -48 -147q-47 -54 -127 -54q-78 0 -125 54t-47 144q0 91 47.5 146t124.5 55zM26 309h365v-78h-365v78zM207 684q-34 0 -49 -37q-11 -28 -11 -81q0 -59 13 -91q6 -14 20 -23t28 -9q31 0 45 29.5t14 94.5q0 77 -19 99 q-16 18 -41 18z" />
<glyph unicode="&#xbb;" horiz-adv-x="538" d="M401 249l-116 173l91 61l159 -234l-159 -234l-91 61zM159 249l-116 173l91 61l159 -234l-159 -234l-91 61z" />
<glyph unicode="&#xbc;" horiz-adv-x="1299" d="M967 518h138l-144 -324l-11 -22.5t-19 -36.5t-15 -22q10 2 21 2h113l24 -1q-1 13 -1 18q0 38 7 107l11 117l105 24v-177q0 -41 -1 -59l-2 -30q20 1 32 1h42v-115h-45l-31 2q5 -13 5 -36v-141l-127 -16v169l2 25q-12 -3 -32 -3h-265v91zM828 764h108l-528 -918h-108z M206 522h90v-413h80v-109h-317v109h108v259q-61 -38 -120 -58l-34 72z" />
<glyph unicode="&#xbd;" horiz-adv-x="1292" d="M1250 112l-29 -112h-417v122q5 3 36.5 17.5t66.5 34.5q99 56 136 94t37 75q0 32 -22 49.5t-58 17.5q-58 0 -136 -64l-80 83q111 99 252 99q89 0 142 -45t53 -119q0 -92 -94 -162q-16 -12 -40 -26.5t-54 -31t-43 -24.5l-26 -13q37 5 97 5h179zM828 764h108l-528 -918h-108 zM206 522h90v-413h80v-109h-317v109h108v259q-61 -38 -120 -58l-34 72z" />
<glyph unicode="&#xbe;" horiz-adv-x="1392" d="M1060 518h138l-144 -324l-11 -22.5t-19 -36.5t-15 -22q10 2 21 2h113l24 -1q-1 13 -1 18q0 38 7 107l11 117l105 24v-177q0 -41 -1 -59l-2 -30q20 1 32 1h42v-115h-45l-31 2q5 -13 5 -36v-141l-127 -16v169l2 25q-12 -3 -32 -3h-265v91zM921 764h108l-528 -918h-108z M113 148v112q32 -4 69 -4q111 0 111 79q0 34 -21.5 54.5t-63.5 20.5q-81 0 -148 -56l-70 85q44 34 93 54q73 30 143 30q94 0 155 -49.5t61 -124.5q0 -89 -66 -129q-16 -10 -37 -18q56 -19 87.5 -59t31.5 -93q0 -103 -98.5 -168.5t-253.5 -65.5q-45 0 -83 5l-32 93 q36 -7 76 -7q104 0 169 43t65 111q0 57 -44 76q-29 12 -93 12q-37 0 -51 -1z" />
<glyph unicode="&#xbf;" horiz-adv-x="448" d="M244 706q34 0 57.5 -24t23.5 -59t-24.5 -59t-58.5 -24t-58 24.5t-24 58.5t24.5 58.5t59.5 24.5zM199 472h115l5 -26q11 -60 -10.5 -106t-77.5 -86l-14.5 -10t-15.5 -11t-13 -11t-12.5 -14.5t-7 -15.5t-3.5 -19q0 -35 23 -52t59 -17q12 0 22.5 1.5t20.5 5.5t17 6.5t16 8.5 t12 8.5l11 9.5l9 6l61 -86q-27 -28 -76.5 -52t-117.5 -24q-80 0 -135 45.5t-55 121.5q0 32 8.5 58t25 44.5t28 28t30.5 21.5q75 48 77 130q0 13 -2 35z" />
<glyph unicode="&#xc0;" d="M218 697h151l219 -697h-150l-49 165h-204l-49 -165h-146zM219 281h136q-23 73 -38 140l-28 123l-33 -134q-20 -77 -37 -129zM380 791l-41 -74l-224 100l58 104z" />
<glyph unicode="&#xc1;" d="M223 697h151l219 -697h-150l-49 165h-204l-49 -165h-146zM224 281h136q-23 73 -38 140l-28 123l-33 -134q-20 -77 -37 -129zM399 921l58 -104l-224 -100l-41 74z" />
<glyph unicode="&#xc2;" d="M218 697h151l219 -697h-150l-49 165h-204l-49 -165h-146zM219 281h136q-23 73 -38 140l-28 123l-33 -134q-20 -77 -37 -129zM104 785l180 135l184 -135l-45 -73l-139 76l-135 -76z" />
<glyph unicode="&#xc3;" d="M218 697h151l219 -697h-150l-49 165h-204l-49 -165h-146zM219 281h136q-23 73 -38 140l-28 123l-33 -134q-20 -77 -37 -129zM479 799q-45 -58 -124 -58q-31 0 -66.5 17t-64.5 17q-41 0 -68 -29l-41 75q46 58 124 58q30 0 66 -17t65 -17q41 0 68 30z" />
<glyph unicode="&#xc4;" d="M218 697h151l219 -697h-150l-49 165h-204l-49 -165h-146zM219 281h136q-23 73 -38 140l-28 123l-33 -134q-20 -77 -37 -129zM190 872q31 0 53 -22.5t22 -54.5q0 -31 -22.5 -54t-54.5 -23q-31 0 -53.5 23t-22.5 54t23 54t55 23zM476 795q0 -31 -23 -54t-54 -23t-53.5 22.5 t-22.5 54.5t23 54.5t55 22.5q31 0 53 -22.5t22 -54.5z" />
<glyph unicode="&#xc5;" d="M218 697h151l219 -697h-150l-49 165h-204l-49 -165h-146zM219 281h136q-23 73 -38 140l-28 123l-33 -134q-20 -77 -37 -129zM294 925q43 0 73.5 -31t30.5 -75q0 -43 -31.5 -74.5t-74.5 -31.5t-73.5 31t-30.5 75q0 43 31.5 74.5t74.5 31.5zM242 819q0 -21 15 -36t35 -15 q21 0 36 15t15 36t-14.5 36t-34.5 15q-22 0 -37 -15t-15 -36z" />
<glyph unicode="&#xc6;" horiz-adv-x="862" d="M410 0v165h-191l-93 -165h-156l414 695h422l-18 -114h-238v-161h199v-114h-197v-186h267v-120h-409zM284 281h126v161l5 82q-104 -197 -131 -243z" />
<glyph unicode="&#xc7;" horiz-adv-x="548" d="M262 -2q-84 21 -141 86q-84 94 -84 249q0 128 47 216q40 76 111 118.5t155 42.5q52 0 99.5 -15t76.5 -40l-63 -95q-53 39 -111 39q-35 0 -67 -16t-51 -44q-39 -58 -39 -179q0 -134 29 -186q43 -78 134 -78q64 0 119 45l64 -88q-79 -65 -193 -65h-17l-7 -20 q36 -4 54 -25.5t18 -53.5q0 -38 -29 -63t-80 -25q-43 0 -87 24l30 63q34 -15 52 -15q10 0 17.5 6t7.5 12q0 20 -25 20q-6 0 -14.5 -3t-12.5 -3l-13 20z" />
<glyph unicode="&#xc8;" horiz-adv-x="536" d="M84 695h396l-18 -114h-238v-161h199v-114h-197v-186h263v-120h-405v695zM390 791l-41 -74l-224 100l58 104z" />
<glyph unicode="&#xc9;" horiz-adv-x="536" d="M84 695h396l-18 -114h-238v-161h199v-114h-197v-186h263v-120h-405v695zM346 921l58 -104l-224 -100l-41 74z" />
<glyph unicode="&#xca;" horiz-adv-x="536" d="M84 695h396l-18 -114h-238v-161h199v-114h-197v-186h263v-120h-405v695zM95 785l180 135l184 -135l-45 -73l-139 76l-135 -76z" />
<glyph unicode="&#xcb;" horiz-adv-x="536" d="M84 695h396l-18 -114h-238v-161h199v-114h-197v-186h263v-120h-405v695zM178 872q31 0 53 -22.5t22 -54.5q0 -31 -22.5 -54t-54.5 -23q-31 0 -53.5 23t-22.5 54t23 54t55 23zM464 795q0 -31 -23 -54t-54 -23t-53.5 22.5t-22.5 54.5t23 54.5t55 22.5q31 0 53 -22.5 t22 -54.5z" />
<glyph unicode="&#xcc;" horiz-adv-x="314" d="M84 695h146v-695h-146v695zM279 791l-41 -74l-224 100l58 104z" />
<glyph unicode="&#xcd;" horiz-adv-x="314" d="M84 695h146v-695h-146v695zM255 921l58 -104l-224 -100l-41 74z" />
<glyph unicode="&#xce;" horiz-adv-x="314" d="M84 695h146v-695h-146v695zM-21 785l180 135l184 -135l-45 -73l-139 76l-135 -76z" />
<glyph unicode="&#xcf;" horiz-adv-x="314" d="M84 695h146v-695h-146v695zM56 872q31 0 53 -22.5t22 -54.5q0 -31 -22.5 -54t-54.5 -23q-31 0 -53.5 23t-22.5 54t23 54t55 23zM342 795q0 -31 -23 -54t-54 -23t-53.5 22.5t-22.5 54.5t23 54.5t55 22.5q31 0 53 -22.5t22 -54.5z" />
<glyph unicode="&#xd1;" horiz-adv-x="651" d="M84 695h155l133 -278q51 -108 76 -197q-9 98 -11 191l-3 284h133v-695h-146l-119 266q-77 172 -94 228q4 -51 7 -197l4 -297h-135v695zM511 799q-45 -58 -124 -58q-31 0 -66.5 17t-64.5 17q-41 0 -68 -29l-41 75q46 58 124 58q30 0 66 -17t65 -17q41 0 68 30z" />
<glyph unicode="&#xd2;" horiz-adv-x="668" d="M339 704q139 0 219 -94.5t80 -258.5q0 -118 -40 -203.5t-115 -126.5q-58 -32 -139 -32q-79 0 -132.5 23t-93.5 75q-80 103 -80 258q0 113 41 198.5t116 126.5q63 34 144 34zM337 596q-35 0 -64 -16.5t-44 -44.5q-35 -66 -35 -190q0 -181 62 -225q33 -24 83 -24 q73 0 105.5 59t32.5 192q0 103 -18 161q-10 33 -41 60.5t-81 27.5zM445 791l-41 -74l-224 100l58 104z" />
<glyph unicode="&#xd3;" horiz-adv-x="668" d="M339 704q139 0 219 -94.5t80 -258.5q0 -118 -40 -203.5t-115 -126.5q-58 -32 -139 -32q-79 0 -132.5 23t-93.5 75q-80 103 -80 258q0 113 41 198.5t116 126.5q63 34 144 34zM337 596q-35 0 -64 -16.5t-44 -44.5q-35 -66 -35 -190q0 -181 62 -225q33 -24 83 -24 q73 0 105.5 59t32.5 192q0 103 -18 161q-10 33 -41 60.5t-81 27.5zM441 921l58 -104l-224 -100l-41 74z" />
<glyph unicode="&#xd4;" horiz-adv-x="668" d="M339 704q139 0 219 -94.5t80 -258.5q0 -118 -40 -203.5t-115 -126.5q-58 -32 -139 -32q-79 0 -132.5 23t-93.5 75q-80 103 -80 258q0 113 41 198.5t116 126.5q63 34 144 34zM337 596q-35 0 -64 -16.5t-44 -44.5q-35 -66 -35 -190q0 -181 62 -225q33 -24 83 -24 q73 0 105.5 59t32.5 192q0 103 -18 161q-10 33 -41 60.5t-81 27.5zM144 785l180 135l184 -135l-45 -73l-139 76l-135 -76z" />
<glyph unicode="&#xd5;" horiz-adv-x="668" d="M339 704q139 0 219 -94.5t80 -258.5q0 -118 -40 -203.5t-115 -126.5q-58 -32 -139 -32q-79 0 -132.5 23t-93.5 75q-80 103 -80 258q0 113 41 198.5t116 126.5q63 34 144 34zM337 596q-35 0 -64 -16.5t-44 -44.5q-35 -66 -35 -190q0 -181 62 -225q33 -24 83 -24 q73 0 105.5 59t32.5 192q0 103 -18 161q-10 33 -41 60.5t-81 27.5zM510 799q-45 -58 -124 -58q-31 0 -66.5 17t-64.5 17q-41 0 -68 -29l-41 75q46 58 124 58q30 0 66 -17t65 -17q41 0 68 30z" />
<glyph unicode="&#xd6;" horiz-adv-x="668" d="M339 704q139 0 219 -94.5t80 -258.5q0 -118 -40 -203.5t-115 -126.5q-58 -32 -139 -32q-79 0 -132.5 23t-93.5 75q-80 103 -80 258q0 113 41 198.5t116 126.5q63 34 144 34zM337 596q-35 0 -64 -16.5t-44 -44.5q-35 -66 -35 -190q0 -181 62 -225q33 -24 83 -24 q73 0 105.5 59t32.5 192q0 103 -18 161q-10 33 -41 60.5t-81 27.5zM238 872q31 0 53 -22.5t22 -54.5q0 -31 -22.5 -54t-54.5 -23q-31 0 -53.5 23t-22.5 54t23 54t55 23zM524 795q0 -31 -23 -54t-54 -23t-53.5 22.5t-22.5 54.5t23 54.5t55 22.5q31 0 53 -22.5t22 -54.5z" />
<glyph unicode="&#xd8;" horiz-adv-x="686" d="M487 669l61 99l73 -41l-68 -110q88 -94 88 -266q0 -118 -40 -203.5t-115 -126.5q-58 -32 -139 -32q-93 0 -155 34l-67 -111l-73 41l76 125q-87 106 -87 267q0 113 41 199t116 126q63 34 144 34q83 0 145 -35zM424 565q-34 31 -84 31q-35 0 -64.5 -16.5t-43.5 -44.5 q-35 -66 -35 -190q0 -80 12 -134zM253 123q39 -27 89 -27q73 0 105.5 59t32.5 192q0 78 -11 131z" />
<glyph unicode="&#xd9;" horiz-adv-x="660" d="M80 695h143v-457q0 -60 12 -83q25 -48 95 -48q46 0 73.5 21.5t32.5 59.5q2 15 2 62v445h142v-468q0 -76 -11 -109q-17 -51 -75.5 -91t-160.5 -40q-164 0 -223 93q-17 27 -23.5 54t-6.5 77v484zM415 791l-41 -74l-224 100l58 104z" />
<glyph unicode="&#xda;" horiz-adv-x="660" d="M80 695h143v-457q0 -60 12 -83q25 -48 95 -48q46 0 73.5 21.5t32.5 59.5q2 15 2 62v445h142v-468q0 -76 -11 -109q-17 -51 -75.5 -91t-160.5 -40q-164 0 -223 93q-17 27 -23.5 54t-6.5 77v484zM386 921l58 -104l-224 -100l-41 74z" />
<glyph unicode="&#xdb;" horiz-adv-x="660" d="M80 695h143v-457q0 -60 12 -83q25 -48 95 -48q46 0 73.5 21.5t32.5 59.5q2 15 2 62v445h142v-468q0 -76 -11 -109q-17 -51 -75.5 -91t-160.5 -40q-164 0 -223 93q-17 27 -23.5 54t-6.5 77v484zM124 785l180 135l184 -135l-45 -73l-139 76l-135 -76z" />
<glyph unicode="&#xdc;" horiz-adv-x="660" d="M80 695h143v-457q0 -60 12 -83q25 -48 95 -48q46 0 73.5 21.5t32.5 59.5q2 15 2 62v445h142v-468q0 -76 -11 -109q-17 -51 -75.5 -91t-160.5 -40q-164 0 -223 93q-17 27 -23.5 54t-6.5 77v484zM217 872q31 0 53 -22.5t22 -54.5q0 -31 -22.5 -54t-54.5 -23q-31 0 -53.5 23 t-22.5 54t23 54t55 23zM503 795q0 -31 -23 -54t-54 -23t-53.5 22.5t-22.5 54.5t23 54.5t55 22.5q31 0 53 -22.5t22 -54.5z" />
<glyph unicode="&#xdd;" horiz-adv-x="552" d="M442 968l58 -104l-224 -100l-41 74zM-16 695h168l89 -190q22 -46 35 -89q19 47 37 87l90 192h165l-222 -409v-286h-146v286z" />
<glyph unicode="&#xdf;" horiz-adv-x="620" d="M8 408v104h82v16q0 51 9 81.5t41 59.5q42 39 104 51q28 5 55 5q100 0 158.5 -44.5t58.5 -120.5q0 -81 -74 -125l-32 -19q-13 -8 -13 -18q0 -14 24 -25q47 -21 68 -34t41 -33q42 -46 42 -113q0 -92 -63 -149t-165 -57q-50 0 -75 12l30 92q13 -5 30 -5q46 0 71 26.5 t25 75.5q0 38 -21 60q-18 20 -37 32l-45 29q-44 28 -44 81q0 46 33 70l23 18q32 25 32 64t-18 60q-18 20 -50 20q-26 0 -45 -16.5t-24 -42.5q-3 -15 -3 -70v-390q0 -60 -20 -103h-136q20 64 20 127v281h-82z" />
<glyph unicode="&#xe0;" horiz-adv-x="516" d="M48 451q36 22 83 42q71 30 140 30q64 0 107 -23t58 -66q10 -30 9 -92l-3 -172v-9q0 -42 9.5 -62.5t38.5 -42.5l-71 -82q-52 22 -72 62q-13 -14 -31 -27q-39 -28 -103 -28q-85 0 -130.5 41.5t-45.5 118.5q0 176 246 176q16 0 30 -1v21q0 44 -12 60t-48 16q-62 0 -148 -58z M311 224h-6q-71 0 -98 -16.5t-27 -61.5q0 -30 16.5 -48.5t42.5 -18.5q38 0 70 35zM378 631l-41 -74l-224 100l58 104z" />
<glyph unicode="&#xe1;" horiz-adv-x="516" d="M48 451q35 22 83 42q71 30 140 30q64 0 107 -23t58 -66q10 -30 9 -92l-3 -172v-9q0 -42 9.5 -62.5t38.5 -42.5l-71 -82q-52 22 -72 62q-18 -18 -31 -27q-39 -28 -103 -28q-85 0 -130.5 41.5t-45.5 118.5q0 176 246 176q19 0 30 -1v21q0 44 -12 60t-48 16q-62 0 -148 -58z M311 224h-6q-71 0 -98 -16.5t-27 -61.5q0 -30 16.5 -48.5t42.5 -18.5q38 0 70 35zM351 761l58 -104l-224 -100l-41 74z" />
<glyph unicode="&#xe2;" horiz-adv-x="516" d="M48 451q35 22 83 42q71 30 140 30q64 0 107 -23t58 -66q10 -30 9 -92l-3 -172v-9q0 -42 9.5 -62.5t38.5 -42.5l-71 -82q-52 22 -72 62q-18 -18 -31 -27q-39 -28 -103 -28q-85 0 -130.5 41.5t-45.5 118.5q0 176 246 176q19 0 30 -1v21q0 44 -12 60t-48 16q-62 0 -148 -58z M311 224h-6q-71 0 -98 -16.5t-27 -61.5q0 -30 16.5 -48.5t42.5 -18.5q38 0 70 35zM67 625l180 135l184 -135l-45 -73l-139 76l-135 -76z" />
<glyph unicode="&#xe3;" horiz-adv-x="516" d="M48 451q35 22 83 42q71 30 140 30q64 0 107 -23t58 -66q10 -30 9 -92l-3 -172v-9q0 -42 9.5 -62.5t38.5 -42.5l-71 -82q-52 22 -72 62q-18 -18 -31 -27q-39 -28 -103 -28q-85 0 -130.5 41.5t-45.5 118.5q0 176 246 176q19 0 30 -1v21q0 44 -12 60t-48 16q-62 0 -148 -58z M311 224h-6q-71 0 -98 -16.5t-27 -61.5q0 -30 16.5 -48.5t42.5 -18.5q38 0 70 35zM438 639q-45 -58 -124 -58q-31 0 -66.5 17t-64.5 17q-41 0 -68 -29l-41 75q46 58 124 58q30 0 66 -17t65 -17q41 0 68 30z" />
<glyph unicode="&#xe4;" horiz-adv-x="516" d="M48 451q39 25 83 42q71 30 140 30q64 0 107 -23t58 -66q9 -27 9 -92l-3 -172v-9q0 -42 9.5 -62.5t38.5 -42.5l-71 -82q-52 22 -72 62q-21 -20 -31 -27q-39 -28 -103 -28q-85 0 -130.5 41.5t-45.5 118.5q0 176 246 176q16 0 30 -1v21q0 44 -12 60t-48 16q-62 0 -148 -58z M311 224h-6q-71 0 -98 -16.5t-27 -61.5q0 -30 16.5 -48.5t42.5 -18.5q38 0 70 35zM147 715q32 0 55 -23.5t23 -56.5t-23.5 -56.5t-56.5 -23.5q-32 0 -55.5 23.5t-23.5 56.5t24 56.5t57 23.5zM436 635q0 -33 -23.5 -56.5t-56.5 -23.5t-56 23.5t-23 56.5t23.5 56.5t57.5 23.5 q32 0 55 -23.5t23 -56.5z" />
<glyph unicode="&#xe5;" horiz-adv-x="516" d="M48 451q35 22 83 42q71 30 140 30q64 0 107 -23t58 -66q10 -30 9 -92l-3 -172v-9q0 -42 9.5 -62.5t38.5 -42.5l-71 -82q-52 22 -72 62q-18 -18 -31 -27q-39 -28 -103 -28q-85 0 -130.5 41.5t-45.5 118.5q0 176 246 176q19 0 30 -1v21q0 44 -12 60t-48 16q-62 0 -148 -58z M311 224h-6q-71 0 -98 -16.5t-27 -61.5q0 -30 16.5 -48.5t42.5 -18.5q38 0 70 35zM259 765q43 0 73.5 -31t30.5 -75q0 -43 -31.5 -74.5t-74.5 -31.5t-73.5 31t-30.5 75q0 43 31.5 74.5t74.5 31.5zM207 659q0 -21 15 -36t35 -15q21 0 36 15t15 36t-14.5 36t-34.5 15 q-22 0 -37 -15t-15 -36z" />
<glyph unicode="&#xe6;" horiz-adv-x="778" d="M382 35l-18 18q-19 -27 -53 -45q-49 -27 -103 -27q-85 0 -130.5 41.5t-45.5 118.5q0 176 246 176q4 0 13 -0.5t17 -0.5v21q0 44 -12 60t-48 16q-62 0 -148 -58l-57 96q31 21 83 42q71 30 140 30q71 0 130 -47q50 46 122 46q96 0 148 -54q68 -69 68 -224v-31h-296v-4 q0 -59 28 -91.5t80 -32.5q68 0 130 51l52 -80q-87 -71 -193 -71q-53 0 -84.5 10.5t-68.5 39.5zM306 224h-6q-71 0 -98 -16.5t-27 -61.5q0 -30 16.5 -48.5t42.5 -18.5q38 0 71 36zM440 311h155v6q0 52 -16 77q-19 30 -59 30q-38 0 -59 -29t-21 -82v-2z" />
<glyph unicode="&#xe7;" horiz-adv-x="440" d="M197 -5q-77 19 -119 85.5t-42 171.5q0 165 105 237q56 38 127 38q51 0 99 -23q21 -11 50 -36l-65 -88q-43 40 -81 40q-45 0 -66 -41t-21 -131q0 -97 26 -129q23 -29 60 -29q44 0 92 42l8 7l61 -81q-24 -24 -47 -38q-54 -32 -117 -32l-7 -20q36 -4 54 -25.5t18 -53.5 q0 -38 -29 -63t-80 -25q-43 0 -87 24l30 63q34 -15 52 -15q10 0 17.5 6t7.5 12q0 20 -25 20q-6 0 -14.5 -3t-12.5 -3l-13 20z" />
<glyph unicode="&#xe8;" horiz-adv-x="510" d="M418 137l52 -80q-87 -71 -193 -71q-110 0 -176 72t-66 193q0 132 64 203q62 69 161 69q96 0 148 -54q68 -69 68 -224v-31h-296v-4q0 -59 28 -91.5t80 -32.5q68 0 130 51zM182 312h155v6q0 52 -16 77q-19 30 -59 30q-38 0 -59 -29t-21 -82v-2zM355 631l-41 -74l-224 100 l58 104z" />
<glyph unicode="&#xe9;" horiz-adv-x="510" d="M418 137l52 -80q-87 -71 -193 -71q-110 0 -176 72t-66 193q0 132 64 203q62 69 161 69q96 0 148 -54q68 -69 68 -224v-31h-296v-4q0 -59 28 -91.5t80 -32.5q68 0 130 51zM182 312h155v6q0 52 -16 77q-19 30 -59 30q-38 0 -59 -29t-21 -82v-2zM348 761l58 -104l-224 -100 l-41 74z" />
<glyph unicode="&#xea;" horiz-adv-x="510" d="M418 137l52 -80q-87 -71 -193 -71q-110 0 -176 72t-66 193q0 132 64 203q62 69 161 69q96 0 148 -54q68 -69 68 -224v-31h-296v-4q0 -59 28 -91.5t80 -32.5q68 0 130 51zM182 312h155v6q0 52 -16 77q-19 30 -59 30q-38 0 -59 -29t-21 -82v-2zM79 625l180 135l184 -135 l-45 -73l-139 76l-135 -76z" />
<glyph unicode="&#xeb;" horiz-adv-x="510" d="M418 137l52 -80q-87 -71 -193 -71q-110 0 -176 72t-66 193q0 132 64 203q62 69 161 69q96 0 148 -54q68 -69 68 -224v-31h-296v-4q0 -59 28 -91.5t80 -32.5q68 0 130 51zM182 312h155v6q0 52 -16 77q-19 30 -59 30q-38 0 -59 -29t-21 -82v-2zM157 712q31 0 53 -22.5 t22 -54.5q0 -31 -22.5 -54t-54.5 -23q-31 0 -53.5 23t-22.5 54t23 54t55 23zM443 635q0 -31 -23 -54t-54 -23t-53.5 22.5t-22.5 54.5t23 54.5t55 22.5q31 0 53 -22.5t22 -54.5z" />
<glyph unicode="&#xec;" horiz-adv-x="274" d="M70 503l134 21v-524h-134v503zM245 631l-41 -74l-224 100l58 104z" />
<glyph unicode="&#xed;" horiz-adv-x="274" d="M70 503l134 21v-524h-134v503zM244 761l58 -104l-224 -100l-41 74z" />
<glyph unicode="&#xee;" horiz-adv-x="274" d="M70 503l134 21v-524h-134v503zM-38 625l180 135l184 -135l-45 -73l-139 76l-135 -76z" />
<glyph unicode="&#xef;" horiz-adv-x="274" d="M70 503l134 21v-524h-134v503zM44 712q31 0 53 -22.5t22 -54.5q0 -31 -22.5 -54t-54.5 -23q-31 0 -53.5 23t-22.5 54t23 54t55 23zM330 635q0 -31 -23 -54t-54 -23t-53.5 22.5t-22.5 54.5t23 54.5t55 22.5q31 0 53 -22.5t22 -54.5z" />
<glyph unicode="&#xf1;" horiz-adv-x="542" d="M52 491l119 34q19 -33 19 -64q38 26 59 38q42 22 92 22q43 0 77 -20.5t46 -53.5q10 -27 10 -73v-374h-132v333q0 44 -9.5 59.5t-35.5 15.5q-42 0 -93 -46v-362h-134v371q0 69 -18 120zM452 639q-45 -58 -124 -58q-31 0 -66.5 17t-64.5 17q-41 0 -68 -29l-41 75 q46 58 124 58q30 0 66 -17t65 -17q41 0 68 30z" />
<glyph unicode="&#xf2;" horiz-adv-x="527" d="M262 522q109 0 174 -77q59 -69 59 -187q0 -125 -64 -198q-63 -71 -169 -71q-104 0 -167 72t-63 193t63 194.5t167 73.5zM264 423q-51 0 -69 -52q-14 -42 -14 -114q0 -89 17 -129q9 -20 28 -31t40 -11q44 0 63.5 41t19.5 132q0 103 -27 137q-21 27 -58 27zM355 631 l-41 -74l-224 100l58 104z" />
<glyph unicode="&#xf3;" horiz-adv-x="527" d="M262 522q109 0 174 -77q59 -69 59 -187q0 -125 -64 -198q-63 -71 -169 -71q-104 0 -167 72t-63 193t63 194.5t167 73.5zM264 423q-51 0 -69 -52q-14 -42 -14 -114q0 -89 17 -129q9 -20 28 -31t40 -11q44 0 63.5 41t19.5 132q0 103 -27 137q-21 27 -58 27zM351 761 l58 -104l-224 -100l-41 74z" />
<glyph unicode="&#xf4;" horiz-adv-x="527" d="M262 522q109 0 174 -77q59 -69 59 -187q0 -125 -64 -198q-63 -71 -169 -71q-104 0 -167 72t-63 193t63 194.5t167 73.5zM264 423q-51 0 -69 -52q-14 -42 -14 -114q0 -89 17 -129q9 -20 28 -31t40 -11q44 0 63.5 41t19.5 132q0 103 -27 137q-21 27 -58 27zM82 625l180 135 l184 -135l-45 -73l-139 76l-135 -76z" />
<glyph unicode="&#xf5;" horiz-adv-x="527" d="M262 522q109 0 174 -77q59 -69 59 -187q0 -125 -64 -198q-63 -71 -169 -71q-104 0 -167 72t-63 193t63 194.5t167 73.5zM264 423q-51 0 -69 -52q-14 -42 -14 -114q0 -89 17 -129q9 -20 28 -31t40 -11q44 0 63.5 41t19.5 132q0 103 -27 137q-21 27 -58 27zM444 639 q-45 -58 -124 -58q-31 0 -66.5 17t-64.5 17q-41 0 -68 -29l-41 75q46 58 124 58q30 0 66 -17t65 -17q41 0 68 30z" />
<glyph unicode="&#xf6;" horiz-adv-x="527" d="M262 522q109 0 174 -77q59 -69 59 -187q0 -125 -64 -198q-63 -71 -169 -71q-104 0 -167 72t-63 193t63 194.5t167 73.5zM264 423q-51 0 -69 -52q-14 -42 -14 -114q0 -89 17 -129q9 -20 28 -31t40 -11q44 0 63.5 41t19.5 132q0 103 -27 137q-21 27 -58 27zM157 712 q31 0 53 -22.5t22 -54.5q0 -31 -22.5 -54t-54.5 -23q-31 0 -53.5 23t-22.5 54t23 54t55 23zM443 635q0 -31 -23 -54t-54 -23t-53.5 22.5t-22.5 54.5t23 54.5t55 22.5q31 0 53 -22.5t22 -54.5z" />
<glyph unicode="&#xf7;" horiz-adv-x="880" d="M753 736q34 0 57.5 -24t23.5 -59t-24 -59t-59 -24q-34 0 -58 24.5t-24 58.5t24.5 58.5t59.5 24.5zM382 418h-171v-418h-131v418h-46v94h49q0 11 -2.5 34.5t-2.5 35.5q0 76 43 117.5t122 41.5q64 0 121 -32l-43 -83q-35 17 -55 17q-26 0 -41 -15.5t-15 -42.5v-73h175 q0 11 -2.5 35.5t-2.5 34.5q0 76 43 117.5t122 41.5q69 0 111 -24l-43 -83q-19 9 -45 9t-41 -15.5t-15 -42.5v-73h306v-512h-134v418h-171v-418h-131v418z" />
<glyph unicode="&#xf8;" horiz-adv-x="556" d="M385 498l59 96l62 -35l-65 -105q68 -67 68 -196q0 -125 -64 -198q-63 -71 -169 -71q-57 0 -103 23l-58 -96l-62 35l62 103q-69 74 -69 200q0 121 63 194.5t167 73.5q61 0 109 -24zM229 104q23 -18 51 -18q44 0 63.5 41t19.5 132q0 42 -3 60zM328 404q-21 19 -50 19 q-51 0 -69 -52q-14 -42 -14 -114q0 -10 3 -67z" />
<glyph unicode="&#xf9;" horiz-adv-x="532" d="M59 500l132 25v-329q0 -62 11 -84q12 -24 47 -24q25 0 50 15t33 34v360l128 27v-391q0 -56 31 -93l-95 -54q-27 19 -40 50q-51 -49 -135 -49q-54 0 -96 23t-55 60q-11 32 -11 102v328zM394 631l-41 -74l-224 100l58 104z" />
<glyph unicode="&#xfa;" horiz-adv-x="532" d="M59 500l132 25v-329q0 -62 11 -84q12 -24 47 -24q25 0 50 15t33 34v360l128 27v-391q0 -56 31 -93l-95 -54q-27 19 -40 50q-51 -49 -135 -49q-54 0 -96 23t-55 60q-11 32 -11 102v328zM351 761l58 -104l-224 -100l-41 74z" />
<glyph unicode="&#xfb;" horiz-adv-x="532" d="M59 500l132 25v-329q0 -62 11 -84q12 -24 47 -24q25 0 50 15t33 34v360l128 27v-391q0 -56 31 -93l-95 -54q-27 19 -40 50q-51 -49 -135 -49q-54 0 -96 23t-55 60q-11 32 -11 102v328zM88 625l180 135l184 -135l-45 -73l-139 76l-135 -76z" />
<glyph unicode="&#xfc;" horiz-adv-x="532" d="M59 500l132 25v-329q0 -62 11 -84q12 -24 47 -24q25 0 50 15t33 34v360l128 27v-391q0 -56 31 -93l-95 -54q-27 19 -40 50q-51 -49 -135 -49q-54 0 -96 23t-55 60q-11 32 -11 102v328zM166 712q31 0 53 -22.5t22 -54.5q0 -31 -22.5 -54t-54.5 -23q-31 0 -53.5 23 t-22.5 54t23 54t55 23zM452 635q0 -31 -23 -54t-54 -23t-53.5 22.5t-22.5 54.5t23 54.5t55 22.5q31 0 53 -22.5t22 -54.5z" />
<glyph unicode="&#xfd;" horiz-adv-x="497" d="M297 786l58 -104l-224 -100l-41 74zM-6 504l137 16l89 -299l27 -106q10 57 16 82q9 37 20 71l77 244h141l-186 -520q-26 -73 -48 -110.5t-50 -58.5q-51 -37 -124 -47l-46 88q57 16 83 34q21 15 38 42q14 23 29 60h-34l-48 144z" />
<glyph unicode="&#xff;" horiz-adv-x="497" d="M-6 504l137 16l89 -299l27 -106q10 57 16 82q9 37 20 71l77 244h141l-186 -520q-26 -73 -48 -110.5t-50 -58.5q-51 -37 -124 -47l-46 88q57 16 83 34q21 15 38 42q14 23 29 60h-34l-48 144zM166 712q31 0 53 -22.5t22 -54.5q0 -31 -22.5 -54t-54.5 -23q-31 0 -53.5 23 t-22.5 54t23 54t55 23zM452 635q0 -31 -23 -54t-54 -23t-53.5 22.5t-22.5 54.5t23 54.5t55 22.5q31 0 53 -22.5t22 -54.5z" />
<glyph unicode="&#x131;" horiz-adv-x="274" d="M70 503l134 21v-524h-134v503z" />
<glyph unicode="&#x152;" horiz-adv-x="855" d="M543 120h268v-120h-408q-118 0 -171.5 12.5t-101.5 59.5q-95 92 -95 277q0 143 70 237q57 78 169 100q47 9 127 9h397l-18 -114h-237v-161h198v-114h-198v-186zM411 119v447q-38 10 -75 10q-69 0 -101.5 -52t-32.5 -162q0 -138 35 -195q35 -58 110 -58q15 0 31 2.5 t24 4.5z" />
<glyph unicode="&#x153;" horiz-adv-x="800" d="M427 42q-59 -53 -152 -53q-104 0 -167 72t-63 193t63 194.5t167 73.5q91 0 150 -53q57 53 146 53q96 0 148 -54q68 -69 68 -224v-31h-296v-4q0 -59 28 -91.5t80 -32.5q69 0 130 51l52 -80q-87 -71 -193 -71q-98 0 -161 57zM493 311h155q0 58 -16 83q-20 30 -59 30 q-38 0 -59 -29t-21 -84zM277 423q-51 0 -69 -52q-14 -42 -14 -114q0 -89 17 -129q9 -20 28 -31t40 -11q44 0 63.5 41t19.5 132q0 103 -27 137q-21 27 -58 27z" />
<glyph unicode="&#x178;" horiz-adv-x="556" d="M-14 695h168l89 -190q22 -46 35 -89q19 47 37 87l90 192h165l-222 -409v-286h-146v286zM179 872q31 0 53 -22.5t22 -54.5q0 -31 -23 -54t-54 -23t-53.5 23t-22.5 54t23 54t55 23zM465 795q0 -31 -22.5 -54t-54.5 -23q-31 0 -53.5 22.5t-22.5 54.5t23 54.5t55 22.5 q31 0 53 -22.5t22 -54.5z" />
<glyph unicode="&#x2c6;" horiz-adv-x="402" d="M19 625l180 135l184 -135l-45 -73l-139 76l-135 -76z" />
<glyph unicode="&#x2da;" horiz-adv-x="315" d="M157 765q43 0 73.5 -31t30.5 -75q0 -43 -31.5 -74.5t-74.5 -31.5t-73.5 31t-30.5 75q0 43 31.5 74.5t74.5 31.5zM105 659q0 -21 15 -36t35 -15q21 0 36 15t15 36t-14.5 36t-34.5 15q-22 0 -37 -15t-15 -36z" />
<glyph unicode="&#x2dc;" horiz-adv-x="393" d="M378 639q-45 -58 -124 -58q-31 0 -66.5 17t-64.5 17q-41 0 -68 -29l-41 75q46 58 124 58q30 0 66 -17t65 -17q41 0 68 30z" />
<glyph unicode="&#x3bc;" horiz-adv-x="537" d="M67 500l132 25v-329q0 -62 11 -84q12 -24 47 -24q25 0 50 15t33 34v360l128 27v-391q0 -56 31 -93l-95 -54q-27 19 -40 50q-51 -49 -135 -49q-19 0 -35 14q2 -20 2 -31v-156l-129 -34v720z" />
<glyph unicode="&#x2013;" horiz-adv-x="481" d="M-3 326h487v-103h-487v103z" />
<glyph unicode="&#x2014;" horiz-adv-x="962" d="M124 326h713v-103h-713v103z" />
<glyph unicode="&#x2018;" horiz-adv-x="272" d="M180 717l53 -56q-33 -8 -52.5 -23t-19.5 -34q0 -18 26 -32q39 -22 39 -70q0 -36 -25.5 -61t-61.5 -25q-43 0 -71.5 34t-28.5 86q0 65 39 115t102 66z" />
<glyph unicode="&#x2019;" horiz-adv-x="267" d="M85 411l-53 55q33 8 52.5 23.5t19.5 33.5q0 16 -26 32q-39 23 -39 70q0 36 25 61t62 25q44 0 72 -34t28 -86q0 -65 -39 -114.5t-102 -65.5z" />
<glyph unicode="&#x201a;" horiz-adv-x="267" d="M91 -145l-53 56q33 7 52.5 23t19.5 34q0 16 -26 32q-39 23 -39 70q0 36 25.5 61t61.5 25q44 0 72 -34t28 -86q0 -65 -39 -115t-102 -66z" />
<glyph unicode="&#x201c;" horiz-adv-x="489" d="M405 718l53 -56q-32 -8 -51.5 -23t-19.5 -34q0 -16 26 -32q39 -24 39 -70q0 -36 -25.5 -61t-62.5 -25q-43 0 -71 33.5t-28 86.5q0 65 39 115t101 66zM180 718l53 -56q-33 -8 -52.5 -23t-19.5 -34q0 -16 26 -32q39 -23 39 -70q0 -36 -25.5 -61t-62.5 -25q-43 0 -71 34 t-28 86q0 65 39 115t102 66z" />
<glyph unicode="&#x201d;" horiz-adv-x="489" d="M88 411l-53 55q33 8 52.5 23.5t19.5 33.5q0 16 -26 32q-39 23 -39 70q0 36 25 61t62 25q44 0 72 -34t28 -86q0 -65 -39 -114.5t-102 -65.5zM314 411l-53 55q32 8 51.5 23.5t19.5 33.5q0 17 -25 32q-39 23 -39 70q0 36 25 61t62 25q43 0 71 -33.5t28 -86.5 q0 -65 -38.5 -114.5t-101.5 -65.5z" />
<glyph unicode="&#x201e;" horiz-adv-x="492" d="M89 -145l-53 56q33 7 52.5 23t19.5 34q0 16 -26 32q-39 23 -39 70q0 36 25.5 61t61.5 25q44 0 72 -34t28 -86q0 -65 -39 -115t-102 -66zM315 -145l-53 56q32 7 51.5 23t19.5 34q0 17 -25 32q-39 23 -39 70q0 36 25 61t62 25q44 0 72 -34t28 -86q0 -65 -39 -115t-102 -66z " />
<glyph unicode="&#x2022;" horiz-adv-x="500" d="M250 531q74 0 125.5 -51.5t51.5 -125.5t-51.5 -125.5t-125.5 -51.5t-125.5 51.5t-51.5 125.5t51.5 125.5t125.5 51.5z" />
<glyph unicode="&#x2026;" horiz-adv-x="748" d="M123 160q37 0 63 -25.5t26 -61.5q0 -37 -26 -63t-62 -26q-37 0 -62.5 26t-25.5 63q0 36 25.5 61.5t61.5 25.5zM373 160q37 0 63 -25.5t26 -61.5q0 -37 -26 -63t-62 -26q-37 0 -62.5 26t-25.5 63q0 36 25.5 61.5t61.5 25.5zM623 160q37 0 63 -25.5t26 -61.5q0 -37 -26 -63 t-62 -26q-37 0 -62.5 26t-25.5 63q0 36 25.5 61.5t61.5 25.5z" />
<glyph unicode="&#x2039;" horiz-adv-x="318" d="M172 249l116 -173l-91 -61l-159 234l159 234l91 -61z" />
<glyph unicode="&#x203a;" horiz-adv-x="318" d="M153 249l-116 173l91 61l159 -234l-159 -234l-91 61z" />
<glyph unicode="&#x2044;" horiz-adv-x="335" d="M412 764h108l-528 -918h-108z" />
<glyph unicode="&#x2122;" horiz-adv-x="1032" d="M170 612h-119v96h346v-96h-119v-316h-108v316zM485 708h145l98 -268l98 268h145v-412h-108v268h-2l-98 -268h-70l-98 268h-2v-268h-108v412z" />
</font>
</defs>
</svg>
