<?xml version="1.0" standalone="no"?>
<!DOCTYPE svg PUBLIC "-//W3C//DTD SVG 1.1//EN" "http://www.w3.org/Graphics/SVG/1.1/DTD/svg11.dtd" >
<svg xmlns="http://www.w3.org/2000/svg">
<metadata>
This is a custom SVG webfont generated by Font Squirrel.
</metadata>
<defs>
<font id="webfontwsxnob7K" horiz-adv-x="569" >
<font-face units-per-em="1000" ascent="800" descent="-200" />
<missing-glyph horiz-adv-x="225" />
<glyph unicode=" "  horiz-adv-x="225" />
<glyph unicode="&#x09;" horiz-adv-x="225" />
<glyph unicode="&#xa0;" horiz-adv-x="225" />
<glyph unicode="!" horiz-adv-x="274" d="M190 704l-22 -494h-70l-23 477zM200 60q0 -28 -20 -48t-47 -20t-45.5 19.5t-18.5 48.5q0 27 18.5 46t46.5 19q27 0 46.5 -19t19.5 -46z" />
<glyph unicode="&#x22;" horiz-adv-x="519" d="M397 453h-85v256h85v-256zM218 453h-85v256h85v-256z" />
<glyph unicode="#" horiz-adv-x="558" d="M521 430h-103l-21 -151h94v-68h-103l-30 -211h-72l29 211h-122l-29 -211h-72l29 211h-91v68h101l20 151h-92v69h102l29 209h72l-29 -209h122l29 209h72l-29 -209h94v-69zM346 430h-122l-21 -151h122z" />
<glyph unicode="$" horiz-adv-x="568" d="M518 203q0 -81 -59 -140t-148 -72v-93h-62v90q-114 0 -213 60l38 75q90 -56 175 -56v250l-36 12q-83 27 -116 67q-37 44 -37 108q0 81 50.5 133.5t138.5 66.5v80h62v-79q99 -3 188 -65l-43 -68q-84 52 -145 52v-214l39 -12q82 -24 122 -71q46 -54 46 -124zM249 426v194 q-82 -22 -82 -99q0 -34 19 -56t63 -39zM409 186q0 81 -98 112v-227q44 10 71 40.5t27 74.5z" />
<glyph unicode="%" horiz-adv-x="833" d="M360 525q0 -77 -45.5 -122.5t-118.5 -45.5q-77 0 -120.5 45.5t-43.5 124.5q0 77 44.5 123t117.5 46q78 0 122 -45.5t44 -125.5zM283 521q0 64 -21.5 91t-66.5 27q-86 0 -86 -108q0 -64 21 -90.5t67 -26.5q86 0 86 107zM802 160q0 -77 -45.5 -122.5t-118.5 -45.5 q-77 0 -120.5 45.5t-43.5 124.5q0 77 44.5 123t117.5 46q78 0 122 -45.5t44 -125.5zM725 156q0 64 -21.5 91t-66.5 27q-86 0 -86 -108q0 -64 21 -90.5t67 -26.5q86 0 86 107zM623 687l-341 -686h-68l340 686h69z" />
<glyph unicode="&#x26;" horiz-adv-x="694" d="M673 2h-125l-60 59q-67 -75 -194 -75q-114 0 -174.5 51.5t-60.5 134.5q0 63 34 101t104 74q-50 40 -72 74.5t-22 79.5q0 68 51 114t131 46t134 -41.5t54 -112.5q0 -100 -141 -164l149 -148q19 44 19 135h76q0 -75 -7.5 -115.5t-26.5 -81.5zM374 507q0 39 -25 64t-63 25 t-62.5 -22t-24.5 -63q0 -55 82 -121q93 45 93 117zM436 113l-189 186q-88 -47 -88 -128q0 -53 36.5 -84.5t101.5 -31.5q94 0 139 58z" />
<glyph unicode="'" horiz-adv-x="283" d="M183 453h-85v256h85v-256z" />
<glyph unicode="(" horiz-adv-x="328" d="M348 -111l-24 -48q-66 25 -117 78t-79 126q-40 105 -40 277q0 180 47 269q72 134 188 184l23 -48q-57 -38 -88.5 -78t-49.5 -98q-26 -87 -26 -227q0 -165 29 -258q41 -130 137 -177z" />
<glyph unicode=")" horiz-adv-x="328" d="M237 322q0 -178 -41 -277q-30 -73 -80.5 -126t-115.5 -78l-24 48q96 47 137 177q30 92 30 258q0 126 -27 227q-16 58 -48 97.5t-90 78.5l23 48q116 -50 188 -184q48 -91 48 -269z" />
<glyph unicode="*" horiz-adv-x="454" d="M420 540l-138 -47l87 -121l-56 -44l-89 125l-85 -123l-56 43l87 120l-140 48l22 68l140 -50v149h68v-148l139 47z" />
<glyph unicode="+" horiz-adv-x="535" d="M501 227h-190v-193h-85v193h-190v87h190v193h85v-193h190v-87z" />
<glyph unicode="," horiz-adv-x="267" d="M208 34q0 -58 -35.5 -106t-89.5 -71l-32 45q27 11 46 33t19 42q0 4 -1.5 7t-5 6t-6.5 4.5l-9 4.5t-9 5q-33 19 -33 58q0 32 21 53.5t52 21.5q36 0 59.5 -29t23.5 -74z" />
<glyph unicode="-" horiz-adv-x="312" d="M258 225h-203v91h203v-91z" />
<glyph unicode="." horiz-adv-x="265" d="M132 136q30 0 50.5 -22t20.5 -53t-20.5 -53t-50.5 -22t-50.5 22t-20.5 53t20.5 53t50.5 22z" />
<glyph unicode="/" horiz-adv-x="457" d="M391 761l-260 -910h-68l260 910h68z" />
<glyph unicode="0" horiz-adv-x="538" d="M495 249q0 -120 -61.5 -191.5t-163.5 -71.5q-106 0 -166 71t-60 194q0 121 61.5 192.5t163.5 71.5q106 0 166 -71.5t60 -194.5zM396 240q0 111 -31 157.5t-97 46.5q-125 0 -125 -183q0 -111 31 -157.5t97 -46.5q125 0 125 183z" />
<glyph unicode="1" horiz-adv-x="411" d="M370 0h-276v74h98v332q-59 -38 -132 -66l-22 48l177 125h67v-439h88v-74z" />
<glyph unicode="2" horiz-adv-x="537" d="M478 76l-19 -76h-389v81l130 95q82 60 116 97t34 85q0 40 -26.5 61.5t-74.5 21.5q-33 0 -70.5 -15.5t-58.5 -31.5l-20 -16l-45 51q106 93 220 93q81 0 131.5 -40.5t50.5 -109.5q0 -104 -161 -217l-117 -82q69 3 103 3h196z" />
<glyph unicode="3" horiz-adv-x="528" d="M462 51q0 -71 -46 -123q-100 -111 -295 -111q-36 0 -60 4l-20 62q68 -13 150 5q72 16 118.5 61.5t46.5 109.5q0 36 -19.5 64t-52.5 39q-44 15 -110 11l-23 -1v71l24 -1q40 -2 67 1q101 13 101 98q0 45 -29.5 72.5t-80.5 27.5q-40 0 -73.5 -13t-80.5 -42l-44 52 q43 36 100.5 58t112.5 22q86 0 141.5 -46.5t55.5 -117.5q0 -51 -30.5 -90.5t-90.5 -59.5q62 -16 100 -58t38 -95z" />
<glyph unicode="4" horiz-adv-x="538" d="M500 8h-48l-32 2q3 -19 3 -35v-145l-89 -19v161l1 37q-25 -1 -41 -1h-257v69l215 444h98l-171 -354q-33 -67 -48 -86q5 0 18 1.5t21 1.5h124l43 -1l-2 29q-1 20 5 97l11 131l72 20v-191q0 -33 -1 -55l-1 -31q22 1 35 1h44v-76z" />
<glyph unicode="5" horiz-adv-x="525" d="M444 57q0 -108 -85 -176t-210 -68q-37 0 -72 9l-18 67q36 -13 78 -13q88 0 147.5 50.5t59.5 124.5q0 58 -37.5 91.5t-101.5 33.5q-71 0 -131 -22l32 347h306l-14 -78h-207l-16 -181q33 5 64 5q89 0 147 -51.5t58 -138.5z" />
<glyph unicode="6" horiz-adv-x="542" d="M497 206q0 -94 -64 -157.5t-158 -63.5q-103 0 -166.5 76t-63.5 200q0 101 46 187t123 148q92 75 201 107l21 -62q-49 -15 -102.5 -48.5t-87.5 -70.5q-58 -64 -88 -168q58 52 138 52q81 0 141 -55.5t60 -144.5zM396 204q0 61 -32.5 95.5t-84.5 34.5q-62 0 -126 -46 q-3 -24 -3 -58q0 -85 32.5 -129.5t90.5 -44.5q56 0 89.5 40t33.5 108z" />
<glyph unicode="7" horiz-adv-x="510" d="M473 501l-19 -88q-36 -52 -81 -126q-50 -82 -114 -234q-58 -139 -75 -215l-108 -29q17 83 52 174q38 100 94 204q79 148 158 239q-19 -5 -83 -5h-255l21 80h410z" />
<glyph unicode="8" horiz-adv-x="552" d="M507 181q0 -86 -67 -142t-171 -56q-103 0 -165.5 52t-62.5 134q0 63 39 108t99 68q-116 49 -116 154q0 77 58.5 124t159.5 47q90 0 146.5 -44t56.5 -114q0 -107 -140 -157q19 -6 51 -23t54 -35q58 -47 58 -116zM388 510q0 43 -31.5 68.5t-85.5 25.5q-53 0 -84.5 -26 t-31.5 -70q0 -37 29.5 -65.5t96.5 -55.5q56 29 81.5 58.5t25.5 64.5zM407 162q0 49 -31 77q-30 27 -141 73q-47 -26 -71 -57t-24 -79q0 -57 37.5 -91t100.5 -34q57 0 93 31t36 80z" />
<glyph unicode="9" horiz-adv-x="542" d="M485 266q0 -182 -140 -328q-51 -53 -121 -91.5t-133 -51.5l-48 54q46 9 102.5 38t98.5 66q77 67 114 167q-58 -40 -118 -40q-87 0 -144.5 60.5t-57.5 152.5q0 97 65 162t162 65q98 0 159 -68.5t61 -185.5zM384 279q0 77 -33.5 123.5t-89.5 46.5q-55 0 -88 -42.5 t-33 -110.5q0 -67 31.5 -105.5t86.5 -38.5q59 0 116 50q10 46 10 77z" />
<glyph unicode=":" horiz-adv-x="303" d="M221 375q0 -31 -21 -52t-50 -21t-49.5 20.5t-20.5 50.5t20.5 51.5t50.5 21.5q29 0 49.5 -21t20.5 -50zM221 59q0 -30 -21 -50.5t-51 -20.5q-29 0 -49 20.5t-20 50.5q0 31 20.5 52.5t50.5 21.5q29 0 49.5 -21.5t20.5 -52.5z" />
<glyph unicode=";" horiz-adv-x="305" d="M216 373q0 -29 -21 -50.5t-50 -21.5t-50 21.5t-21 51.5q0 29 20.5 50t49.5 21t50.5 -21.5t21.5 -50.5zM230 34q0 -58 -35.5 -106t-89.5 -71l-32 45q27 11 46 33t19 42q0 4 -1.5 7t-5 6t-6.5 4.5l-9 4.5t-9 5q-33 19 -33 58q0 32 21 53.5t52 21.5q36 0 59.5 -29t23.5 -74z " />
<glyph unicode="&#x3c;" horiz-adv-x="1190" d="M1157 302q0 -23 -16.5 -40t-40.5 -17q-23 0 -40 17t-17 40t17 40t40 17q24 0 40.5 -17t16.5 -40zM989 302q0 -23 -17 -40t-40 -17q-24 0 -40.5 17t-16.5 40t16.5 40t40.5 17q23 0 40 -17t17 -40zM820 302q0 -23 -17 -40t-40 -17q-24 0 -40.5 17t-16.5 40t16.5 40t40.5 17 q23 0 40 -17t17 -40zM404 676q0 -24 -17 -40.5t-40 -16.5q-24 0 -40.5 16.5t-16.5 40.5q0 23 16.5 40t40.5 17q23 0 40 -17t17 -40zM651 302q0 -23 -16.5 -40t-40.5 -17q-23 0 -40 17t-17 40t17 40t40 17q24 0 40.5 -17t16.5 -40zM317 551q0 -23 -16.5 -40t-40.5 -17 q-23 0 -40 17t-17 40q0 24 17 40.5t40 16.5q24 0 40.5 -16.5t16.5 -40.5zM482 302q0 -23 -16.5 -40t-40.5 -17q-23 0 -40 17t-17 40t17 40t40 17q24 0 40.5 -17t16.5 -40zM231 427q0 -24 -16.5 -40.5t-40.5 -16.5q-23 0 -40 16.5t-17 40.5q0 23 17 40t40 17q24 0 40.5 -17 t16.5 -40zM314 302q0 -23 -17 -40t-40 -17q-24 0 -40.5 17t-16.5 40t16.5 40t40.5 17q23 0 40 -17t17 -40zM145 302q0 -23 -17 -40t-40 -17q-24 0 -40.5 17t-16.5 40t16.5 40t40.5 17q23 0 40 -17t17 -40zM231 177q0 -23 -16.5 -40t-40.5 -17q-23 0 -40 17t-17 40 q0 24 17 40.5t40 16.5q24 0 40.5 -16.5t16.5 -40.5zM317 53q0 -24 -16.5 -40.5t-40.5 -16.5q-23 0 -40 16.5t-17 40.5q0 23 17 40t40 17q24 0 40.5 -17t16.5 -40zM404 -72q0 -23 -17 -40t-40 -17q-24 0 -40.5 17t-16.5 40q0 24 16.5 40.5t40.5 16.5q23 0 40 -16.5t17 -40.5z " />
<glyph unicode="=" horiz-adv-x="666" d="M595 350h-525v83h525v-83zM595 175h-525v83h525v-83z" />
<glyph unicode="&#x3e;" horiz-adv-x="1190" d="M31 302q0 23 16.5 40t40.5 17q23 0 40 -17t17 -40t-17 -40t-40 -17q-24 0 -40.5 17t-16.5 40zM199 302q0 23 17 40t40 17q24 0 40.5 -17t16.5 -40t-16.5 -40t-40.5 -17q-23 0 -40 17t-17 40zM368 302q0 23 17 40t40 17q24 0 40.5 -17t16.5 -40t-16.5 -40t-40.5 -17 q-23 0 -40 17t-17 40zM784 676q0 23 17 40t40 17q24 0 40.5 -17t16.5 -40q0 -24 -16.5 -40.5t-40.5 -16.5q-23 0 -40 16.5t-17 40.5zM537 302q0 23 16.5 40t40.5 17q23 0 40 -17t17 -40t-17 -40t-40 -17q-24 0 -40.5 17t-16.5 40zM871 551q0 24 16.5 40.5t40.5 16.5 q23 0 40 -16.5t17 -40.5q0 -23 -17 -40t-40 -17q-24 0 -40.5 17t-16.5 40zM706 302q0 23 16.5 40t40.5 17q23 0 40 -17t17 -40t-17 -40t-40 -17q-24 0 -40.5 17t-16.5 40zM957 427q0 23 16.5 40t40.5 17q23 0 40 -17t17 -40q0 -24 -17 -40.5t-40 -16.5q-24 0 -40.5 16.5 t-16.5 40.5zM874 302q0 23 17 40t40 17q24 0 40.5 -17t16.5 -40t-16.5 -40t-40.5 -17q-23 0 -40 17t-17 40zM1043 302q0 23 17 40t40 17q24 0 40.5 -17t16.5 -40t-16.5 -40t-40.5 -17q-23 0 -40 17t-17 40zM957 177q0 24 16.5 40.5t40.5 16.5q23 0 40 -16.5t17 -40.5 q0 -23 -17 -40t-40 -17q-24 0 -40.5 17t-16.5 40zM871 53q0 23 16.5 40t40.5 17q23 0 40 -17t17 -40q0 -24 -17 -40.5t-40 -16.5q-24 0 -40.5 16.5t-16.5 40.5zM784 -72q0 24 17 40.5t40 16.5q24 0 40.5 -16.5t16.5 -40.5q0 -23 -16.5 -40t-40.5 -17q-23 0 -40 17t-17 40z " />
<glyph unicode="?" horiz-adv-x="444" d="M386 547q0 -17 -3.5 -33t-8.5 -28.5t-13.5 -25t-15 -20t-17.5 -17.5t-15.5 -13.5l-14.5 -11.5l-11 -7q-68 -48 -61 -135q1 -6 2.5 -16t1.5 -15h-79q-1 2 -2 10.5t-2 10.5q-18 107 64 182q8 8 27 22.5t29 23t18.5 26t8.5 38.5q0 38 -26 60t-65 22q-61 0 -125 -44l-39 60 q76 64 183 64q71 0 117.5 -42t46.5 -111zM271 60q0 -30 -21 -51.5t-50 -21.5q-28 0 -48 21.5t-20 51.5q0 28 20 48t48 20q29 0 50 -20t21 -48z" />
<glyph unicode="@" horiz-adv-x="800" d="M754 413q0 -53 -16 -99.5t-40.5 -77t-55.5 -53t-60 -32.5t-54 -10q-30 0 -47.5 17t-19.5 46h-7q-55 -63 -124 -63q-61 0 -99.5 45t-38.5 114q0 103 60.5 181t156.5 78q79 0 108 -72h6l14 56h70l-66 -248q-9 -38 -9 -58q0 -27 28 -27q45 0 84.5 59t39.5 139 q0 117 -79 187.5t-193 70.5q-128 0 -213.5 -90t-85.5 -221q0 -134 89 -223t217 -89q67 0 128 27t101 73h73q-50 -76 -131 -118t-174 -42q-157 0 -266 107t-109 265q0 156 109 264t264 108q139 0 239.5 -87.5t100.5 -226.5zM494 394q0 41 -23.5 69.5t-58.5 28.5 q-60 0 -101 -58.5t-41 -125.5q0 -42 22.5 -70t61.5 -28q61 0 100.5 60t39.5 124z" />
<glyph unicode="A" d="M568 0h-108l-61 195h-239l-60 -195h-100l226 690h120zM378 275q-9 24 -47.5 156.5t-45.5 162.5h-6q-8 -31 -47 -163t-48 -156h194z" />
<glyph unicode="B" horiz-adv-x="602" d="M548 189q0 -69 -38 -115.5t-101 -62.5q-43 -11 -109 -11h-210v689h146q89 0 123.5 -4.5t66.5 -21.5q93 -49 93 -144q0 -115 -125 -152q77 -17 115.5 -63t38.5 -115zM415 503q0 36 -18.5 62.5t-48.5 35.5q-22 7 -70 7h-94v-210h109q44 0 65 8.5t37 29.5q20 28 20 67z M442 200q0 42 -21 73t-53 39q-27 6 -72 6h-111v-240h136q49 0 85 30.5t36 91.5z" />
<glyph unicode="C" horiz-adv-x="549" d="M522 47q-80 -57 -186 -57q-133 0 -214 103q-75 96 -75 246q0 118 45 205q39 74 104 116t144 42q103 0 169 -54l-47 -63q-54 40 -122 40q-104 0 -153 -99q-33 -66 -33 -185q0 -103 25 -162q23 -55 67.5 -83.5t101.5 -28.5q72 0 127 43z" />
<glyph unicode="D" horiz-adv-x="632" d="M569 344q0 -158 -75 -251q-38 -47 -91.5 -70t-140.5 -23h-172v689h160q92 0 152 -25.5t106 -88.5q61 -85 61 -231zM462 332q0 154 -51 219q-28 35 -60.5 48t-84.5 13h-78v-533h76q118 0 161 77q37 68 37 176z" />
<glyph unicode="E" horiz-adv-x="516" d="M476 0h-386v689h375l-13 -79h-265v-210h222v-81h-221v-236h288v-83z" />
<glyph unicode="F" horiz-adv-x="456" d="M449 689l-13 -79h-249v-209h204v-78h-204v-323h-97v689h359z" />
<glyph unicode="G" horiz-adv-x="629" d="M552 45q-88 -55 -204 -55q-138 0 -218 93t-80 258q0 200 119 298q72 59 173 59q116 0 195 -69l-46 -60q-72 52 -147 52q-105 0 -148 -88q-23 -47 -30.5 -89.5t-7.5 -107.5q0 -144 49 -208q22 -29 62.5 -45.5t85.5 -16.5q57 0 102 26v196h-127l-16 79h238v-322z" />
<glyph unicode="H" horiz-adv-x="635" d="M545 0h-97v327h-263v-327h-95v689h95v-283h263v283h97v-689z" />
<glyph unicode="I" horiz-adv-x="278" d="M188 0h-98v689h98v-689z" />
<glyph unicode="J" horiz-adv-x="278" d="M188 122q0 -74 -7 -111.5t-27 -66.5q-39 -57 -114 -85l-45 53q55 28 79 74q17 34 17 129v574h97v-567z" />
<glyph unicode="K" horiz-adv-x="579" d="M188 0h-98v689h98v-689zM192 368l241 321h121l-252 -320l261 -369h-125z" />
<glyph unicode="L" horiz-adv-x="464" d="M450 80l-16 -80h-344v689h98v-609h262z" />
<glyph unicode="M" horiz-adv-x="810" d="M744 0h-96l-36 469q-1 16 -2 38.5l-2 43.5t-1 27h-2q-10 -49 -25 -100l-137 -478h-83l-126 456q-17 60 -31 123h-2q-3 -78 -7 -123l-35 -456h-94l62 689h135l116 -423q20 -74 25 -113h2q11 61 24 108l120 428h136z" />
<glyph unicode="N" horiz-adv-x="639" d="M549 0h-103l-181 366q-66 134 -84 189l-6 -1q6 -72 8 -192l4 -362h-97v689h112l192 -380q20 -39 41.5 -93.5t26.5 -71.5l6 2q-10 100 -10 205l-2 338h93v-689z" />
<glyph unicode="O" horiz-adv-x="668" d="M614 340q0 -160 -74 -255.5t-204 -95.5q-138 0 -211 98.5t-73 259.5q0 168 75 261t204 93q74 0 129.5 -29t88.5 -80t49 -114.5t16 -137.5zM504 331q0 147 -39.5 221t-133.5 74q-90 0 -130.5 -66t-40.5 -202q0 -142 40 -219t136 -77q168 0 168 269z" />
<glyph unicode="P" horiz-adv-x="552" d="M529 489q0 -59 -19.5 -100.5t-64.5 -76.5q-54 -42 -145 -42h-114v-270h-96v689h184q113 0 164 -32q91 -57 91 -168zM422 478q0 65 -34 98q-35 34 -112 34h-90v-262h108q68 0 99 39q29 37 29 91z" />
<glyph unicode="Q" horiz-adv-x="667" d="M686 -47l-27 -68q-17 -10 -58 -10q-47 0 -128 51q-74 48 -145 64q-122 0 -198 91q-80 95 -80 267q0 113 37 196t104 123q58 34 137 34q142 0 217 -107q67 -96 67 -253q0 -181 -98 -279q-24 -24 -48 -39q18 -7 86 -45q49 -29 91 -29q25 0 43 4zM501 332q0 130 -29 200 q-16 39 -51.5 66.5t-92.5 27.5q-43 0 -80 -20.5t-55 -53.5q-36 -68 -36 -194q0 -171 51 -237q45 -58 126 -58q80 0 122 61q45 64 45 208z" />
<glyph unicode="R" horiz-adv-x="579" d="M541 0h-117q-23 45 -57 102q-71 119 -119 172q-27 30 -62 31v-305h-96v689h193q110 0 163 -50q61 -57 61 -142q0 -83 -50 -137.5t-134 -51.5q31 -25 60 -64q28 -38 58 -85zM406 496q0 35 -17.5 62.5t-46.5 38.5q-32 13 -84 13h-72v-240h67q85 0 119 33q34 32 34 93z" />
<glyph unicode="S" horiz-adv-x="568" d="M517 201q0 -82 -67.5 -148t-192.5 -66q-122 0 -222 61l38 74q92 -57 186 -57q68 0 108.5 32.5t40.5 87.5q0 84 -114 117l-72 21q-82 24 -122.5 65.5t-40.5 112.5q0 89 63 144.5t165 55.5q119 0 211 -65l-43 -68q-89 54 -164 54q-58 0 -91.5 -28t-33.5 -76q0 -37 23.5 -60 t78.5 -39l81 -24q75 -22 121.5 -70.5t46.5 -123.5z" />
<glyph unicode="T" horiz-adv-x="500" d="M484 689l-10 -80h-179v-609h-95v609h-179v80h463z" />
<glyph unicode="U" horiz-adv-x="638" d="M550 216q0 -65 -6.5 -91.5t-29.5 -54.5q-66 -81 -198 -81q-155 0 -208 96q-14 24 -18 47t-4 76v481h97v-445q0 -105 25 -134q34 -39 109 -39q78 0 112 45q25 32 25 114v459h96v-473z" />
<glyph unicode="V" horiz-adv-x="574" d="M563 689l-234 -691h-94l-230 691h106l132 -412q16 -48 26 -91q10 -42 11 -52h6q2 9 14 52q10 35 28 92l135 411h100z" />
<glyph unicode="W" horiz-adv-x="833" d="M809 689l-160 -691h-118l-76 347q-24 107 -35 198l-6 1q-13 -91 -35 -195l-74 -351h-119l-163 691h104l76 -355q7 -32 37 -218h6q22 134 38 209l80 364h111l79 -366q29 -130 36 -203l6 -1q19 122 40 221l73 349h100z" />
<glyph unicode="X" horiz-adv-x="551" d="M542 0h-117l-155 296l-149 -296h-117l208 371l-184 318h117l124 -234l118 234h115l-174 -312z" />
<glyph unicode="Y" horiz-adv-x="528" d="M531 689l-220 -415v-274h-100v276l-218 413h118l114 -235q24 -50 38 -89q20 47 40 88l116 236h112z" />
<glyph unicode="Z" horiz-adv-x="503" d="M469 80l-24 -80h-411v74l278 467q18 31 49 71q-30 -3 -79 -3h-236l23 80h396v-77l-275 -467q-8 -14 -23 -36t-20 -30q21 1 69 1h253z" />
<glyph unicode="[" horiz-adv-x="265" d="M200 -155h-175v888h175v-65h-92v-759h92v-64z" />
<glyph unicode="\" horiz-adv-x="382" d="M377 -19l-76 -27l-298 774l76 27z" />
<glyph unicode="]" horiz-adv-x="268" d="M238 -155h-175v64h92v759h-92v65h175v-888z" />
<glyph unicode="^" horiz-adv-x="656" d="M574 300h-90l-157 320l-156 -320h-91l203 408h88z" />
<glyph unicode="_" horiz-adv-x="500" d="M500 -125h-500v50h500v-50z" />
<glyph unicode="`" horiz-adv-x="333" d="M282 617l-28 -54l-217 102l44 85z" />
<glyph unicode="a" horiz-adv-x="505" d="M463 41l-47 -62q-49 19 -67 72q-54 -66 -142 -66q-76 0 -119 38t-43 109q0 86 66.5 132t188.5 46q22 0 35 -1v33q0 51 -15 75t-63 24q-79 0 -154 -57l-42 66q36 21 56.5 31t64.5 22.5t89 12.5q116 0 145 -80q10 -28 10 -88q0 -13 -2 -79t-2 -107q0 -57 7 -80.5t34 -40.5z M333 246q-28 2 -30 2q-100 0 -131 -36q-26 -30 -26 -73q0 -41 20.5 -64t58.5 -23q31 0 59.5 18t45.5 48z" />
<glyph unicode="b" horiz-adv-x="546" d="M498 259q0 -158 -90 -231q-47 -38 -108 -38q-80 0 -129 66q-8 -42 -15 -56h-87q13 35 13 117v479q0 75 -16 120l98 20q10 -53 10 -108v-116q0 -43 -3 -52l3 -2q56 56 131 56q89 0 141 -68.5t52 -186.5zM394 261q0 50 -4 74t-17 47q-28 52 -89 52q-42 0 -79 -27 q-16 -12 -31 -31v-254q45 -53 108 -53q58 0 84 45q28 49 28 147z" />
<glyph unicode="c" horiz-adv-x="440" d="M410 55q-36 -35 -71 -50t-83 -15q-108 0 -161 75q-48 68 -48 181q0 146 84 221q57 51 130 51q78 0 136 -53l-48 -63q-44 39 -88 39q-61 0 -88 -54q-24 -48 -24 -153q0 -101 40 -144q28 -30 72 -30q58 0 104 52z" />
<glyph unicode="d" horiz-adv-x="547" d="M474 0h-88q-5 16 -9 47q-52 -55 -129 -55q-96 0 -149.5 67.5t-53.5 186.5q0 167 105 235q45 29 98 29q74 0 122 -58q0 4 -1 36t-1 52v195l92 -15v-552q0 -129 14 -168zM367 127v262q-39 47 -106 47q-57 0 -87 -51q-26 -45 -26 -138q0 -69 8.5 -99t30.5 -53q25 -26 74 -26 q73 0 106 58z" />
<glyph unicode="e" horiz-adv-x="508" d="M453 231h-305v-12q0 -66 21 -100q38 -59 115 -59q69 0 123 48l35 -55q-73 -64 -173 -64q-104 0 -164 71t-60 194t60 194q59 69 151 69q84 0 136 -54q33 -34 46.5 -82t14.5 -134v-16zM357 299q0 74 -31 113q-28 35 -72 35q-52 0 -78.5 -39t-26.5 -109h208z" />
<glyph unicode="f" horiz-adv-x="298" d="M342 703l-31 -60q-38 19 -65 19q-32 0 -49.5 -21t-17.5 -59v-81h133l-24 -65h-108v-436h-93v436h-48v65h49q-2 10 -2 80q0 86 56 125q34 24 91 24q65 0 109 -27z" />
<glyph unicode="g" horiz-adv-x="527" d="M532 460q-38 -30 -83 -30q-16 0 -43 8q36 -46 36 -92q0 -62 -44.5 -108.5t-135.5 -46.5q-29 -9 -54 -24.5t-25 -30.5q0 -25 36 -25h77q92 0 136.5 -38t44.5 -100q0 -78 -58 -120t-153 -42q-105 0 -162.5 35t-57.5 97q0 24 9 51l90 5q-9 -18 -9 -38q0 -80 121 -80 q60 0 91.5 22.5t31.5 63.5q0 76 -138 76q-46 0 -94 5q-33 4 -51.5 21.5t-18.5 45.5q0 32 24 51t74 37q-57 17 -87.5 54.5t-30.5 89.5q0 76 53 122t139 46q41 0 78 -11q52 -16 75 -16q41 0 82 29zM340 349q0 94 -92 94q-91 0 -91 -96q0 -93 92 -93q91 0 91 95z" />
<glyph unicode="h" horiz-adv-x="544" d="M467 0h-90v344q0 51 -17 70t-55 19q-32 0 -68 -19.5t-65 -53.5v-360h-93v609q0 59 -11 105l93 19q11 -47 11 -116v-112q0 -28 -3 -67q25 23 53 41q52 34 109 34q45 0 80 -20.5t46 -54.5q10 -29 10 -81v-357z" />
<glyph unicode="i" horiz-adv-x="255" d="M193 655q0 -27 -19.5 -46.5t-47.5 -19.5q-27 0 -45.5 19.5t-18.5 46.5q0 28 19 47.5t46 19.5t46.5 -19.5t19.5 -47.5zM174 0h-95v498l95 15v-513z" />
<glyph unicode="j" horiz-adv-x="257" d="M192 663q0 -28 -19.5 -48t-46.5 -20q-28 0 -46.5 19t-18.5 47t19 47.5t46 19.5t46.5 -19.5t19.5 -45.5zM176 11q0 -99 -37 -148q-35 -45 -88 -69l-41 56q16 10 32 24q39 36 39 138v481l95 20v-502z" />
<glyph unicode="k" horiz-adv-x="500" d="M173 0h-92v598q0 67 -13 114l93 22q12 -54 12 -110v-624zM504 0h-115l-206 285l165 217h112l-179 -213z" />
<glyph unicode="l" horiz-adv-x="263" d="M233 1q-26 -11 -57 -11q-51 0 -78 38q-19 27 -19 87v454q0 90 -11 144l96 20q9 -33 9 -143v-451q0 -62 13 -74q11 -13 31 -7z" />
<glyph unicode="m" horiz-adv-x="788" d="M706 0h-91v359q0 42 -14 59.5t-46 17.5q-31 0 -56.5 -16.5t-60.5 -51.5v-368h-90v357q0 42 -14 59.5t-48 17.5q-54 0 -115 -58v-376h-91v368q0 80 -18 125l86 21q17 -29 17 -70q68 71 141 71q82 0 119 -79q75 79 153 79q60 0 94 -36.5t34 -104.5v-374z" />
<glyph unicode="n" horiz-adv-x="533" d="M454 0h-91v338q0 56 -16 77q-15 20 -51 20q-27 0 -62.5 -18.5t-61.5 -45.5v-371h-91v373q0 70 -19 119l87 24q17 -34 17 -77q46 38 65 49q43 25 93 25q40 0 72.5 -19.5t45.5 -51.5q12 -27 12 -63v-379z" />
<glyph unicode="o" horiz-adv-x="535" d="M480 246q0 -119 -59 -189.5t-159 -70.5t-158.5 71.5t-58.5 193.5t58 193t157 71q107 0 163.5 -75t56.5 -194zM377 242q0 111 -29.5 156.5t-87.5 45.5q-60 0 -86.5 -44t-26.5 -139q0 -112 28.5 -158t88.5 -46q113 0 113 185z" />
<glyph unicode="p" horiz-adv-x="545" d="M495 259q0 -121 -51.5 -195t-144.5 -74q-72 0 -130 52q2 -16 2 -56v-176l-90 -21v589q0 73 -11 123l89 15q6 -22 6 -72q58 70 142 70q81 0 134.5 -66t53.5 -189zM396 248q0 94 -24 141t-81 47q-67 0 -120 -62v-255q52 -55 107 -55q118 0 118 184z" />
<glyph unicode="q" horiz-adv-x="546" d="M473 505q-12 -45 -12 -140v-552l-88 -22v184q0 3 0.5 36.5t0.5 41.5q-57 -61 -130 -61q-82 0 -139.5 64.5t-57.5 184.5q0 130 51.5 203.5t146.5 73.5q83 0 136 -69q1 37 9 56h83zM372 136v242q-19 28 -49 44.5t-62 16.5q-115 0 -115 -180q0 -103 30.5 -146.5t88.5 -43.5 q68 0 107 67z" />
<glyph unicode="r" horiz-adv-x="339" d="M335 512l-32 -92q-15 5 -26 5q-42 0 -73 -30.5t-31 -71.5v-323h-92v368q0 76 -19 125l89 23q17 -36 17 -77v-9q60 87 136 87q18 0 31 -5z" />
<glyph unicode="s" horiz-adv-x="458" d="M415 154q0 -75 -54.5 -121.5t-142.5 -46.5q-97 0 -187 53l33 66q89 -50 161 -50q41 0 67 22t26 59q0 63 -84 79l-61 12q-59 11 -90.5 47t-31.5 92q0 69 50 112.5t131 43.5q88 0 158 -41l-31 -65q-72 36 -123 36q-40 0 -63.5 -20.5t-23.5 -54.5q0 -28 16 -43.5t55 -24.5 l65 -15q130 -30 130 -140z" />
<glyph unicode="t" horiz-adv-x="325" d="M297 501l-25 -65h-99v-302q0 -47 14 -64t51 -17q24 0 47 10l11 -56q-42 -21 -91 -21q-58 0 -85 25q-15 13 -20 19t-11 27.5t-6 55.5v323h-60v65h60q0 82 6 128l95 22q-9 -81 -9 -150h122z" />
<glyph unicode="u" horiz-adv-x="543" d="M483 33l-63 -50q-35 27 -47 72q-59 -72 -151 -72q-48 0 -83.5 20t-51.5 55q-12 27 -12 84v356l91 18v-349q0 -38 5 -56.5t18 -31.5q24 -22 58 -22q33 0 65.5 23t48.5 56v360l91 18v-377q0 -78 31 -104z" />
<glyph unicode="v" horiz-adv-x="456" d="M449 501l-183 -505h-86l-179 503l95 15l99 -303q17 -52 30 -108h2q11 53 30 110l95 288h97z" />
<glyph unicode="w" horiz-adv-x="701" d="M682 501l-140 -505h-89l-73 273l-31 118h-3q-20 -85 -27 -112l-75 -279h-88l-137 501l93 15l64 -281l26 -123h3q11 71 23 114l76 279h95l70 -271q28 -108 28 -122h4q0 11 23 119l62 274h96z" />
<glyph unicode="x" horiz-adv-x="461" d="M464 0h-115l-121 203q-63 -111 -122 -203h-114l186 276l-148 218l104 13l50.5 -87l46.5 -81q43 87 86 162h107l-146 -225z" />
<glyph unicode="y" horiz-adv-x="475" d="M464 501l-175 -517q-39 -116 -85 -154q-38 -32 -93 -43l-29 60q51 13 87 57q19 24 41 98l-36 -5q-16 73 -48 167l-111 329l93 21l96 -315q16 -56 29 -118h6q14 60 34 124l89 296h102z" />
<glyph unicode="z" horiz-adv-x="436" d="M403 66l-32 -66h-342v66l263 368h-243v67h343v-69l-251 -366h262z" />
<glyph unicode="{" horiz-adv-x="347" d="M315 -155h-80q-45 0 -77.5 34.5t-32.5 96.5v175q0 47 -30 73t-64 28v74q33 2 63.5 28.5t30.5 72.5v177q0 61 32.5 95t77.5 34h80v-74h-49q-35 0 -46.5 -20.5t-11.5 -55.5v-173q0 -58 -28.5 -85.5t-61.5 -32.5l-1 -7q34 -3 62.5 -29t28.5 -88v-172q0 -78 58 -78h49v-73z " />
<glyph unicode="|" horiz-adv-x="222" d="M151 -17h-81v774h81v-774z" />
<glyph unicode="}" horiz-adv-x="348" d="M320 252q-34 -2 -64 -28t-30 -73v-176q0 -62 -32.5 -96t-78.5 -34h-79v73h48q59 0 59 78v171q0 63 28 89t63 29v7q-35 6 -63 33t-28 85v173q0 76 -59 76h-48v74h80q44 0 77 -34.5t33 -95.5v-176q0 -46 30 -72.5t64 -28.5v-74z" />
<glyph unicode="~" horiz-adv-x="666" d="M555 314q-25 -41 -52 -65t-69 -24q-33 0 -105 33l-26 12.5t-31 14t-25 8t-29 4.5q-47 0 -85 -68l-30 66q25 41 52 64.5t69 23.5q32 0 104 -32q9 -4 27.5 -13t29 -13.5t26 -9t28.5 -4.5q28 0 47.5 18.5t38.5 50.5z" />
<glyph unicode="&#xa1;" horiz-adv-x="268" d="M201 635q0 -28 -19.5 -47.5t-47.5 -19.5q-27 0 -45.5 19.5t-18.5 46.5q0 28 19 47.5t46 19.5t46.5 -19t19.5 -47zM193 6l-115 -17l23 495h69z" />
<glyph unicode="&#xa2;" horiz-adv-x="446" d="M417 55q-20 -20 -44 -36q-32 -21 -78 -27v-87h-62v87q-92 9 -136 73q-51 72 -51 181q0 146 89 223q42 36 97 45v83h63v-83q32 -3 61 -18q19 -10 47 -33l-47 -61q-23 26 -61 36v-376q49 12 76 49zM233 62v377q-20 -8 -37 -25.5t-26 -36.5q-25 -53 -25 -137q0 -151 88 -178 z" />
<glyph unicode="&#xa3;" d="M557 659l-67 -72q-48 45 -102 45q-126 0 -126 -160v-72h159v-74h-159v-241h248v-85h-453v85h103v241h-96v74h96v81q0 113 60.5 176t162.5 63q107 0 174 -61z" />
<glyph unicode="&#xa4;" horiz-adv-x="447" d="M390 90l-78 -49l-38 66q-32 -8 -56 -8q-23 0 -55 9l-40 -67l-75 49l43 68q-34 41 -34 113t37 118l-45 66l80 48l39 -66q21 6 49 6q32 0 54 -8l36 68l76 -48l-41 -64q37 -37 37 -123q0 -67 -33 -109zM302 272q0 114 -86 114q-41 0 -61.5 -24.5t-20.5 -84.5q0 -62 18.5 -92 t67.5 -30q82 0 82 117z" />
<glyph unicode="&#xa5;" horiz-adv-x="553" d="M539 690l-162 -304h136v-69h-171l-23 -42v-55h194v-68h-194v-152h-100v152h-185v68h185v57l-22 40h-163v69h129l-162 304h118l114 -235q24 -50 38 -89q20 47 40 88l116 236h112z" />
<glyph unicode="&#xa7;" horiz-adv-x="571" d="M497 283q0 -85 -89 -132q67 -48 67 -124q0 -57 -33.5 -97.5t-81 -58t-101.5 -17.5q-153 0 -207 121l90 43q12 -40 45 -60t77 -20q41 0 71.5 20.5t30.5 60.5q0 45 -64 77q-8 4 -45 21q-69 31 -120 63q-69 44 -69 122q0 92 100 145q-76 44 -76 118q0 77 59 119.5t138 42.5 q61 0 112.5 -22.5t76.5 -72.5l-88 -49q-12 29 -40 44.5t-61 15.5q-38 0 -65.5 -19.5t-27.5 -57.5q0 -49 50 -72l100 -47q35 -17 54.5 -28.5t45.5 -31.5t38.5 -46t12.5 -58zM400 265q0 24 -15.5 44t-31.5 30.5t-42 22.5l-80 39q-69 -30 -69 -79q0 -19 6.5 -34t21.5 -26.5 t25 -17t31 -15.5l96 -46q25 12 41.5 34.5t16.5 47.5z" />
<glyph unicode="&#xa8;" horiz-adv-x="500" d="M410 627q0 -26 -17 -44.5t-41 -18.5q-25 0 -42 18.5t-17 44.5t17 44t42 18q23 0 40.5 -18.5t17.5 -43.5zM202 627q0 -26 -17 -44.5t-42 -18.5q-24 0 -41 18.5t-17 44.5t17 44t41 18t41.5 -18.5t17.5 -43.5z" />
<glyph unicode="&#xa9;" horiz-adv-x="793" d="M765 355q0 -156 -108.5 -264t-260.5 -108t-260 108t-108 264t108 264t260 108t260.5 -108t108.5 -264zM693 355q0 131 -86.5 221t-210.5 90t-210 -90t-86 -221q0 -130 86 -221t210 -91q123 0 210 91t87 221zM514 178q-49 -37 -114 -37q-82 0 -131 60q-47 58 -47 148 q0 75 27 126q23 45 63.5 70.5t89.5 25.5q65 0 103 -33l-31 -45q-33 23 -71 23q-55 0 -83 -50q-22 -39 -22 -109q0 -67 17 -103q27 -59 92 -59q41 0 74 27z" />
<glyph unicode="&#xaa;" horiz-adv-x="395" d="M356 413l-35 -47q-37 15 -50 56q-14 -16 -31 -29q-32 -23 -77 -23q-58 0 -92 32q-29 29 -29 79q0 65 48.5 98t140.5 33h28v25q0 42 -11 55q-16 19 -47 19t-71 -17q-26 -11 -45 -26l-31 51q25 15 39.5 22.5t48.5 17t70 9.5q77 0 103 -48q15 -29 14 -84l-3 -137 q-1 -39 5 -56.5t25 -29.5zM359 237h-325v57h325v-57zM257 566q-12 3 -22 3q-71 0 -99 -26q-20 -19 -20 -57q0 -31 15.5 -48.5t44.5 -17.5q49 0 80 50z" />
<glyph unicode="&#xab;" horiz-adv-x="510" d="M470 65l-62 -42l-146 221l146 222l62 -43l-115 -179zM263 65l-62 -42l-146 221l146 222l62 -43l-115 -179z" />
<glyph unicode="&#xac;" horiz-adv-x="584" d="M481 72h-91v140h-318v81h409v-221z" />
<glyph unicode="&#xae;" horiz-adv-x="793" d="M765 355q0 -156 -108.5 -264t-260.5 -108t-260 108t-108 264t108 264t260 108t260.5 -108t108.5 -264zM693 355q0 131 -86.5 221t-210.5 90t-210 -90t-86 -221q0 -130 86 -221t210 -91q123 0 210 91t87 221zM561 148h-82l-36 65q-41 72 -71 102q-12 12 -27 13v-180h-68 v416h127q66 0 100.5 -33.5t34.5 -85.5q0 -49 -28.5 -81.5t-74.5 -32.5q18 -9 64 -83zM383 508h-38v-132h36q50 0 67 18q19 17 19 50q0 64 -84 64z" />
<glyph unicode="&#xaf;" horiz-adv-x="400" d="M336 677h-281v63h281v-63z" />
<glyph unicode="&#xb0;" horiz-adv-x="391" d="M359 525q0 -77 -45.5 -122.5t-118.5 -45.5q-77 0 -120.5 45.5t-43.5 124.5q0 77 44.5 123t117.5 46q78 0 122 -45.5t44 -125.5zM282 521q0 64 -21.5 91t-66.5 27q-86 0 -86 -108q0 -64 21 -90.5t67 -26.5q86 0 86 107z" />
<glyph unicode="&#xb1;" horiz-adv-x="455" d="M421 286h-150v-142h-91v142h-150v86h150v136h91v-136h150v-86zM419 31h-387v86h387v-86z" />
<glyph unicode="&#xb2;" horiz-adv-x="537" d="M478 76l-19 -76h-389v81l130 95q82 60 116 97t34 85q0 40 -26.5 61.5t-74.5 21.5q-33 0 -70.5 -15.5t-58.5 -31.5l-20 -16l-45 51q106 93 220 93q81 0 131.5 -40.5t50.5 -109.5q0 -104 -161 -217l-117 -82q69 3 103 3h196z" />
<glyph unicode="&#xb3;" horiz-adv-x="528" d="M462 51q0 -71 -46 -123q-100 -111 -295 -111q-36 0 -60 4l-20 62q68 -13 150 5q72 16 118.5 61.5t46.5 109.5q0 36 -19.5 64t-52.5 39q-44 15 -110 11l-23 -1v71l24 -1q40 -2 67 1q101 13 101 98q0 45 -29.5 72.5t-80.5 27.5q-40 0 -73.5 -13t-80.5 -42l-44 52 q43 36 100.5 58t112.5 22q86 0 141.5 -46.5t55.5 -117.5q0 -51 -30.5 -90.5t-90.5 -59.5q62 -16 100 -58t38 -95z" />
<glyph unicode="&#xb4;" horiz-adv-x="338" d="M292 665l-217 -102l-29 54l201 133z" />
<glyph unicode="&#xb5;" horiz-adv-x="536" d="M486 35l-62 -49q-35 27 -47 72q-59 -72 -151 -72q-34 0 -58 23q0 -6 1 -19.5t1 -21.5l5 -157l-97 -22v709l92 19v-348q0 -67 23 -87q24 -22 58 -22t66 22.5t48 56.5v357l90 18v-367q0 -53 14 -87q6 -15 17 -25z" />
<glyph unicode="&#xb6;" horiz-adv-x="604" d="M553 -125h-71v772h-121v-772h-72v454q-94 0 -152.5 52t-58.5 131q0 96 60 146.5t166 50.5h249v-834z" />
<glyph unicode="&#xb7;" horiz-adv-x="276" d="M206 278q0 -31 -21 -53t-50 -22t-49.5 22t-20.5 53t20.5 52.5t49.5 21.5t50 -21.5t21 -52.5z" />
<glyph unicode="&#xb8;" horiz-adv-x="429" d="M317 -113q0 -34 -26.5 -59.5t-72.5 -25.5q-35 0 -79 24l22 48q33 -15 56 -15q14 0 24.5 8.5t10.5 21.5q0 14 -10.5 22t-26.5 8q-10 0 -31 -3l1 21l19 75l58 -7l-13 -44q68 -9 68 -74z" />
<glyph unicode="&#xb9;" horiz-adv-x="411" d="M370 0h-276v74h98v332q-59 -38 -132 -66l-22 48l177 125h67v-439h88v-74z" />
<glyph unicode="&#xba;" horiz-adv-x="429" d="M374 237h-325v57h325v-57zM373 563q0 -88 -44 -140.5t-118 -52.5q-75 0 -118.5 53t-43.5 144q0 90 43.5 143t116.5 53q80 0 122 -55.5t42 -144.5zM292 560q0 79 -21 111t-62 32q-42 0 -60.5 -30.5t-18.5 -97.5q0 -80 19.5 -112.5t62.5 -32.5q80 0 80 130z" />
<glyph unicode="&#xbb;" horiz-adv-x="510" d="M469 244l-146 -221l-62 42l116 179l-116 179l62 43zM262 244l-146 -221l-62 42l117 179l-117 179l62 43z" />
<glyph unicode="&#xbc;" horiz-adv-x="1287" d="M1249 8h-48l-32 2q3 -19 3 -35v-145l-89 -19v161l1 37q-25 -1 -41 -1h-257v69l215 444h98l-171 -354q-33 -67 -48 -86q5 0 18 1.5t21 1.5h124l43 -1l-2 29q-1 20 5 97l11 131l72 20v-191q0 -33 -1 -55l-1 -31q22 1 35 1h44v-76zM905 764l-524 -917h-73l523 917h74zM370 0 h-276v74h98v332q-59 -38 -132 -66l-22 48l177 125h67v-439h88v-74z" />
<glyph unicode="&#xbd;" horiz-adv-x="1286" d="M1227 76l-19 -76h-389v81l130 95q82 60 116 97t34 85q0 40 -26.5 61.5t-74.5 21.5q-33 0 -70.5 -15.5t-58.5 -31.5l-20 -16l-45 51q106 93 220 93q81 0 131.5 -40.5t50.5 -109.5q0 -104 -161 -217l-117 -82q69 3 103 3h196zM905 764l-524 -917h-73l523 917h74zM370 0 h-276v74h98v332q-59 -38 -132 -66l-22 48l177 125h67v-439h88v-74z" />
<glyph unicode="&#xbe;" horiz-adv-x="1404" d="M1366 8h-48l-32 2q3 -19 3 -35v-145l-89 -19v161l1 37q-25 -1 -41 -1h-257v69l215 444h98l-171 -354q-33 -67 -48 -86q5 0 18 1.5t21 1.5h124l43 -1l-2 29q-1 20 5 97l11 131l72 20v-191q0 -33 -1 -55l-1 -31q22 1 35 1h44v-76zM1022 764l-524 -917h-73l523 917h74z M462 51q0 -71 -46 -123q-100 -111 -295 -111q-36 0 -60 4l-20 62q68 -13 150 5q72 16 118.5 61.5t46.5 109.5q0 36 -19.5 64t-52.5 39q-44 15 -110 11l-23 -1v71l24 -1q40 -2 67 1q101 13 101 98q0 45 -29.5 72.5t-80.5 27.5q-40 0 -73.5 -13t-80.5 -42l-44 52 q43 36 100.5 58t112.5 22q86 0 141.5 -46.5t55.5 -117.5q0 -51 -30.5 -90.5t-90.5 -59.5q62 -16 100 -58t38 -95z" />
<glyph unicode="&#xbf;" horiz-adv-x="435" d="M293 630q0 -29 -20.5 -49.5t-49.5 -20.5q-28 0 -48.5 20.5t-20.5 49.5q0 30 20 50.5t49 20.5t49.5 -20.5t20.5 -50.5zM385 53q-76 -64 -183 -64q-72 0 -117.5 41.5t-45.5 110.5q0 90 94 155q3 2 4 3q61 44 61 115q0 28 -4 50h79q8 -48 8 -60q0 -89 -67 -142 q-33 -25 -46.5 -37.5t-25 -31.5t-11.5 -41q0 -38 25.5 -60.5t64.5 -22.5q29 0 65.5 13t58.5 32z" />
<glyph unicode="&#xc0;" d="M568 0h-108l-61 195h-239l-60 -195h-100l226 690h120zM378 275q-9 24 -47.5 156.5t-45.5 162.5h-6q-8 -31 -47 -163t-48 -156h194zM372 777l-28 -54l-217 102l44 85z" />
<glyph unicode="&#xc1;" d="M568 0h-108l-61 195h-239l-60 -195h-100l226 690h120zM378 275q-9 24 -47.5 156.5t-45.5 162.5h-6q-8 -31 -47 -163t-48 -156h194zM446 825l-217 -102l-29 54l201 133z" />
<glyph unicode="&#xc2;" d="M568 0h-108l-61 195h-239l-60 -195h-100l226 690h120zM378 275q-9 24 -47.5 156.5t-45.5 162.5h-6q-8 -31 -47 -163t-48 -156h194zM458 769l-36 -51l-138 86l-134 -86l-32 51l169 138z" />
<glyph unicode="&#xc3;" d="M568 0h-108l-61 195h-239l-60 -195h-100l226 690h120zM378 275q-9 24 -47.5 156.5t-45.5 162.5h-6q-8 -31 -47 -163t-48 -156h194zM452 813q-27 -34 -52.5 -50t-65.5 -16q-31 0 -65.5 21t-63.5 21q-21 0 -34.5 -9t-31.5 -29l-31 52q26 34 51.5 49.5t65.5 15.5 q31 0 65.5 -20.5t63.5 -20.5q21 0 35 9t32 29z" />
<glyph unicode="&#xc4;" d="M568 0h-108l-61 195h-239l-60 -195h-100l226 690h120zM378 275q-9 24 -47.5 156.5t-45.5 162.5h-6q-8 -31 -47 -163t-48 -156h194zM449 787q0 -26 -17 -44.5t-41 -18.5q-25 0 -42 18.5t-17 44.5t17 44t42 18q23 0 40.5 -18.5t17.5 -43.5zM241 787q0 -26 -17 -44.5 t-42 -18.5q-24 0 -41 18.5t-17 44.5t17 44t41 18t41.5 -18.5t17.5 -43.5z" />
<glyph unicode="&#xc5;" d="M568 0h-108l-61 195h-239l-60 -195h-100l226 690h120zM378 275q-9 24 -47.5 156.5t-45.5 162.5h-6q-8 -31 -47 -163t-48 -156h194zM386 820q0 -43 -30.5 -74.5t-72.5 -31.5q-41 0 -70.5 31.5t-29.5 74.5t30.5 74.5t71.5 31.5t71 -31.5t30 -74.5zM344 820q0 26 -17.5 44.5 t-40.5 18.5q-26 0 -44 -18.5t-18 -44.5t17.5 -44.5t41.5 -18.5q25 0 43 18.5t18 44.5z" />
<glyph unicode="&#xc6;" horiz-adv-x="901" d="M849 0h-385v196h-226l-116 -196h-106l417 686h406l-13 -79h-265v-208h222v-81h-221v-235h287v-83zM466 579l-6 2l-177 -306h181l-1 193z" />
<glyph unicode="&#xc7;" horiz-adv-x="549" d="M522 48q-81 -58 -193 -58l-11 -32q69 -9 69 -73q0 -33 -27 -58t-72 -25q-36 0 -80 24l22 47q33 -15 56 -15q14 0 25 8.5t11 20.5q0 14 -11 21.5t-26 7.5q-5 0 -14 -2t-11 -2l-8 12l19 73q-84 20 -143 89q-81 95 -81 254q0 117 45 204q39 74 103.5 115.5t144.5 41.5 q100 0 169 -53l-47 -63q-56 40 -122 40q-95 0 -147 -87q-39 -65 -39 -196q0 -106 25 -163q23 -55 67.5 -83t100.5 -28q67 0 128 43z" />
<glyph unicode="&#xc8;" horiz-adv-x="516" d="M476 0h-386v689h375l-13 -79h-265v-210h222v-81h-221v-236h288v-83zM394 777l-28 -54l-217 102l44 85z" />
<glyph unicode="&#xc9;" horiz-adv-x="516" d="M476 0h-386v689h375l-13 -79h-265v-210h222v-81h-221v-236h288v-83zM419 825l-217 -102l-29 54l201 133z" />
<glyph unicode="&#xca;" horiz-adv-x="516" d="M476 0h-386v689h375l-13 -79h-265v-210h222v-81h-221v-236h288v-83zM456 769l-36 -51l-138 86l-134 -86l-32 51l169 138z" />
<glyph unicode="&#xcb;" horiz-adv-x="516" d="M476 0h-386v689h375l-13 -79h-265v-210h222v-81h-221v-236h288v-83zM449 787q0 -26 -17 -44.5t-41 -18.5q-25 0 -42 18.5t-17 44.5t17 44t42 18q23 0 40.5 -18.5t17.5 -43.5zM241 787q0 -26 -17 -44.5t-42 -18.5q-24 0 -41 18.5t-17 44.5t17 44t41 18t41.5 -18.5 t17.5 -43.5z" />
<glyph unicode="&#xcc;" horiz-adv-x="278" d="M188 0h-98v689h98v-689zM225 781l-28 -54l-217 102l44 85z" />
<glyph unicode="&#xcd;" horiz-adv-x="278" d="M188 0h-98v689h98v-689zM304 829l-217 -102l-29 54l201 133z" />
<glyph unicode="&#xce;" horiz-adv-x="278" d="M188 0h-98v689h98v-689zM312 773l-36 -51l-138 86l-134 -86l-32 51l169 138z" />
<glyph unicode="&#xcf;" horiz-adv-x="278" d="M188 0h-98v689h98v-689zM305 789q0 -26 -17 -44.5t-41 -18.5q-25 0 -42 18.5t-17 44.5t17 44t42 18q23 0 40.5 -18.5t17.5 -43.5zM97 789q0 -26 -17 -44.5t-42 -18.5q-24 0 -41 18.5t-17 44.5t17 44t41 18t41.5 -18.5t17.5 -43.5z" />
<glyph unicode="&#xd1;" horiz-adv-x="630" d="M549 0h-103l-181 366q-66 134 -84 189l-6 -1q6 -72 8 -192l4 -362h-97v689h112l192 -380q20 -39 41.5 -93.5t26.5 -71.5l6 2q-10 100 -10 205l-2 338h93v-689zM492 813q-27 -34 -52.5 -50t-65.5 -16q-31 0 -65.5 21t-63.5 21q-21 0 -34.5 -9t-31.5 -29l-31 52 q26 34 51.5 49.5t65.5 15.5q31 0 65.5 -20.5t63.5 -20.5q21 0 35 9t32 29z" />
<glyph unicode="&#xd2;" horiz-adv-x="668" d="M614 340q0 -160 -74 -255.5t-204 -95.5q-138 0 -211 98.5t-73 259.5q0 168 75 261t204 93q74 0 129.5 -29t88.5 -80t49 -114.5t16 -137.5zM504 331q0 147 -39.5 221t-133.5 74q-90 0 -130.5 -66t-40.5 -202q0 -142 40 -219t136 -77q168 0 168 269zM446 777l-28 -54 l-217 102l44 85z" />
<glyph unicode="&#xd3;" horiz-adv-x="668" d="M614 340q0 -160 -74 -255.5t-204 -95.5q-138 0 -211 98.5t-73 259.5q0 168 75 261t204 93q74 0 129.5 -29t88.5 -80t49 -114.5t16 -137.5zM504 331q0 147 -39.5 221t-133.5 74q-90 0 -130.5 -66t-40.5 -202q0 -142 40 -219t136 -77q168 0 168 269zM468 829l-217 -102 l-29 54l201 133z" />
<glyph unicode="&#xd4;" horiz-adv-x="668" d="M614 340q0 -160 -74 -255.5t-204 -95.5q-138 0 -211 98.5t-73 259.5q0 168 75 261t204 93q74 0 129.5 -29t88.5 -80t49 -114.5t16 -137.5zM504 331q0 147 -39.5 221t-133.5 74q-90 0 -130.5 -66t-40.5 -202q0 -142 40 -219t136 -77q168 0 168 269zM508 769l-36 -51 l-138 86l-134 -86l-32 51l169 138z" />
<glyph unicode="&#xd5;" horiz-adv-x="668" d="M614 340q0 -160 -74 -255.5t-204 -95.5q-138 0 -211 98.5t-73 259.5q0 168 75 261t204 93q74 0 129.5 -29t88.5 -80t49 -114.5t16 -137.5zM504 331q0 147 -39.5 221t-133.5 74q-90 0 -130.5 -66t-40.5 -202q0 -142 40 -219t136 -77q168 0 168 269zM519 813 q-27 -34 -52.5 -50t-65.5 -16q-31 0 -65.5 21t-63.5 21q-21 0 -34.5 -9t-31.5 -29l-31 52q26 34 51.5 49.5t65.5 15.5q31 0 65.5 -20.5t63.5 -20.5q21 0 35 9t32 29z" />
<glyph unicode="&#xd6;" horiz-adv-x="661" d="M614 340q0 -160 -74 -255.5t-204 -95.5q-138 0 -211 98.5t-73 259.5q0 168 75 261t204 93q74 0 129.5 -29t88.5 -80t49 -114.5t16 -137.5zM504 331q0 147 -39.5 221t-133.5 74q-90 0 -130.5 -66t-40.5 -202q0 -142 40 -219t136 -77q168 0 168 269zM499 787 q0 -26 -17 -44.5t-41 -18.5q-25 0 -42 18.5t-17 44.5t17 44t42 18q23 0 40.5 -18.5t17.5 -43.5zM291 787q0 -26 -17 -44.5t-42 -18.5q-24 0 -41 18.5t-17 44.5t17 44t41 18t41.5 -18.5t17.5 -43.5z" />
<glyph unicode="&#xd8;" horiz-adv-x="667" d="M615 339q0 -202 -119 -298q-67 -54 -159 -54q-88 0 -153 44l-67 -115l-54 32l75 125q-85 102 -85 273q0 113 37 196.5t105 123.5q58 34 137 34q87 0 154 -43l61 105l55 -32l-69 -116q41 -56 61.5 -116t20.5 -159zM441 583q-45 42 -109 42q-44 0 -81.5 -20t-54.5 -54 q-35 -69 -35 -195q0 -115 28 -197zM505 330q0 116 -26 192l-252 -422q47 -40 110 -40q80 0 123 61q45 66 45 209z" />
<glyph unicode="&#xd9;" horiz-adv-x="638" d="M550 216q0 -65 -6.5 -91.5t-29.5 -54.5q-66 -81 -198 -81q-155 0 -208 96q-14 24 -18 47t-4 76v481h97v-445q0 -105 25 -134q34 -39 109 -39q78 0 112 45q25 32 25 114v459h96v-473zM415 777l-28 -54l-217 102l44 85z" />
<glyph unicode="&#xda;" horiz-adv-x="638" d="M550 216q0 -65 -6.5 -91.5t-29.5 -54.5q-66 -81 -198 -81q-155 0 -208 96q-14 24 -18 47t-4 76v481h97v-445q0 -105 25 -134q34 -39 109 -39q78 0 112 45q25 32 25 114v459h96v-473zM450 825l-217 -102l-29 54l201 133z" />
<glyph unicode="&#xdb;" horiz-adv-x="638" d="M550 216q0 -65 -6.5 -91.5t-29.5 -54.5q-66 -81 -198 -81q-155 0 -208 96q-14 24 -18 47t-4 76v481h97v-445q0 -105 25 -134q34 -39 109 -39q78 0 112 45q25 32 25 114v459h96v-473zM484 769l-36 -51l-138 86l-134 -86l-32 51l169 138z" />
<glyph unicode="&#xdc;" horiz-adv-x="638" d="M550 216q0 -65 -6.5 -91.5t-29.5 -54.5q-66 -81 -198 -81q-155 0 -208 96q-14 24 -18 47t-4 76v481h97v-445q0 -105 25 -134q34 -39 109 -39q78 0 112 45q25 32 25 114v459h96v-473zM476 787q0 -26 -17 -44.5t-41 -18.5q-25 0 -42 18.5t-17 44.5t17 44t42 18 q23 0 40.5 -18.5t17.5 -43.5zM268 787q0 -26 -17 -44.5t-42 -18.5q-24 0 -41 18.5t-17 44.5t17 44t41 18t41.5 -18.5t17.5 -43.5z" />
<glyph unicode="&#xdd;" horiz-adv-x="528" d="M479 863l-217 -102l-29 54l201 133zM531 689l-220 -415v-274h-100v276l-218 413h118l114 -235q24 -50 38 -89q20 47 40 88l116 236h112z" />
<glyph unicode="&#xdf;" horiz-adv-x="584" d="M529 181q0 -100 -82 -158q-48 -34 -118 -34q-55 0 -86 14l24 62q31 -10 50 -10q50 0 81 33.5t31 86.5q0 34 -17 63q-12 21 -30.5 34.5t-62.5 37.5q-70 38 -70 83q0 25 14 43t50 37q32 16 44 34.5t12 48.5q0 47 -31 70q-24 19 -62 19q-56 0 -80 -44q-16 -29 -16 -94v-24 l3 -382q0 -51 -14 -100h-91q13 54 13 119l-2 313h-77v68h76v22q0 57 13.5 88t45.5 60q48 43 133 43q84 0 137 -43.5t53 -111.5q0 -53 -38 -88q-31 -30 -73 -44q-29 -10 -29 -26q0 -14 24 -27l43 -21.5t53 -27.5q79 -46 79 -144z" />
<glyph unicode="&#xe0;" horiz-adv-x="505" d="M463 41l-47 -62q-49 19 -67 72q-54 -66 -142 -66q-76 0 -119 38t-43 109q0 86 66.5 132t188.5 46q22 0 35 -1v33q0 51 -15 75t-63 24q-79 0 -154 -57l-42 66q36 21 56.5 31t64.5 22.5t89 12.5q116 0 145 -80q10 -28 10 -88q0 -13 -2 -79t-2 -107q0 -57 7 -80.5t34 -40.5z M333 246q-28 2 -30 2q-100 0 -131 -36q-26 -30 -26 -73q0 -41 20.5 -64t58.5 -23q31 0 59.5 18t45.5 48zM358 617l-28 -54l-217 102l44 85z" />
<glyph unicode="&#xe1;" horiz-adv-x="505" d="M463 41l-47 -62q-49 19 -67 72q-54 -66 -142 -66q-76 0 -119 38t-43 109q0 86 66.5 132t188.5 46q22 0 35 -1v33q0 51 -15 75t-63 24q-79 0 -154 -57l-42 66q36 21 56.5 31t64.5 22.5t89 12.5q116 0 145 -80q10 -28 10 -88q0 -13 -2 -79t-2 -107q0 -57 7 -80.5t34 -40.5z M333 246q-28 2 -30 2q-100 0 -131 -36q-26 -30 -26 -73q0 -41 20.5 -64t58.5 -23q31 0 59.5 18t45.5 48zM394 665l-217 -102l-29 54l201 133z" />
<glyph unicode="&#xe2;" horiz-adv-x="505" d="M463 41l-47 -62q-49 19 -67 72q-54 -66 -142 -66q-76 0 -119 38t-43 109q0 86 66.5 132t188.5 46q22 0 35 -1v33q0 51 -15 75t-63 24q-79 0 -154 -57l-42 66q36 21 56.5 31t64.5 22.5t89 12.5q116 0 145 -80q10 -28 10 -88q0 -13 -2 -79t-2 -107q0 -57 7 -80.5t34 -40.5z M333 246q-28 2 -30 2q-100 0 -131 -36q-26 -30 -26 -73q0 -41 20.5 -64t58.5 -23q31 0 59.5 18t45.5 48zM415 609l-36 -51l-138 86l-134 -86l-32 51l169 138z" />
<glyph unicode="&#xe3;" horiz-adv-x="505" d="M463 41l-47 -62q-49 19 -67 72q-54 -66 -142 -66q-76 0 -119 38t-43 109q0 86 66.5 132t188.5 46q22 0 35 -1v33q0 51 -15 75t-63 24q-79 0 -154 -57l-42 66q36 21 56.5 31t64.5 22.5t89 12.5q116 0 145 -80q10 -28 10 -88q0 -13 -2 -79t-2 -107q0 -57 7 -80.5t34 -40.5z M333 246q-28 2 -30 2q-100 0 -131 -36q-26 -30 -26 -73q0 -41 20.5 -64t58.5 -23q31 0 59.5 18t45.5 48zM415 653q-27 -34 -52.5 -50t-65.5 -16q-31 0 -65.5 21t-63.5 21q-21 0 -34.5 -9t-31.5 -29l-31 52q26 34 51.5 49.5t65.5 15.5q31 0 65.5 -20.5t63.5 -20.5q21 0 35 9 t32 29z" />
<glyph unicode="&#xe4;" horiz-adv-x="505" d="M410 627q0 -26 -17 -44.5t-41 -18.5q-25 0 -42 18.5t-17 44.5t17 44t42 18q23 0 40.5 -18.5t17.5 -43.5zM202 627q0 -26 -17 -44.5t-42 -18.5q-24 0 -41 18.5t-17 44.5t17 44t41 18t41.5 -18.5t17.5 -43.5zM463 41l-47 -62q-49 19 -67 72q-54 -66 -142 -66q-76 0 -119 38 t-43 109q0 86 66.5 132t188.5 46q22 0 35 -1v33q0 51 -15 75t-63 24q-79 0 -154 -57l-42 66q36 21 56.5 31t64.5 22.5t89 12.5q116 0 145 -80q10 -28 10 -88q0 -13 -2 -79t-2 -107q0 -57 7 -80.5t34 -40.5zM333 246q-28 2 -30 2q-100 0 -131 -36q-26 -30 -26 -73 q0 -41 20.5 -64t58.5 -23q31 0 59.5 18t45.5 48z" />
<glyph unicode="&#xe5;" horiz-adv-x="505" d="M463 41l-47 -62q-49 19 -67 72q-54 -66 -142 -66q-76 0 -119 38t-43 109q0 86 66.5 132t188.5 46q22 0 35 -1v33q0 51 -15 75t-63 24q-79 0 -154 -57l-42 66q36 21 56.5 31t64.5 22.5t89 12.5q116 0 145 -80q10 -28 10 -88q0 -13 -2 -79t-2 -107q0 -57 7 -80.5t34 -40.5z M333 246q-28 2 -30 2q-100 0 -131 -36q-26 -30 -26 -73q0 -41 20.5 -64t58.5 -23q31 0 59.5 18t45.5 48zM355 660q0 -43 -30.5 -74.5t-72.5 -31.5q-41 0 -70.5 31.5t-29.5 74.5t30.5 74.5t71.5 31.5t71 -31.5t30 -74.5zM313 660q0 26 -17.5 44.5t-40.5 18.5q-26 0 -44 -18.5 t-18 -44.5t17.5 -44.5t41.5 -18.5q25 0 43 18.5t18 44.5z" />
<glyph unicode="&#xe6;" horiz-adv-x="774" d="M721 231h-305v-12q0 -66 21 -100q37 -59 114 -59q70 0 124 48l34 -55q-71 -64 -178 -64q-57 0 -104.5 27t-59.5 56q-24 -31 -58 -53q-49 -33 -107 -33q-79 0 -123 42q-39 38 -39 105q0 86 65.5 131t187.5 45q5 0 16 -0.5t21 -0.5v44q0 44 -15.5 66.5t-62.5 22.5 q-77 0 -154 -57l-42 66q104 66 210 66q78 0 124 -59q60 60 136 60q84 0 134 -54q61 -62 61 -216v-16zM624 299q0 70 -27.5 109t-75.5 39q-50 0 -77.5 -37.5t-27.5 -110.5h208zM327 246q-7 0 -16.5 1t-12.5 1q-94 0 -131 -35q-26 -25 -26 -73q0 -41 20.5 -64t58.5 -23 q31 0 59.5 18t45.5 48z" />
<glyph unicode="&#xe7;" horiz-adv-x="440" d="M410 56q-15 -17 -42 -35q-48 -31 -112 -31l-8 -32q67 -9 67 -73q0 -33 -26.5 -58t-72.5 -25q-37 0 -79 23l22 48q33 -15 56 -15q14 0 24.5 8.5t10.5 20.5q0 14 -10.5 21.5t-26.5 7.5q-10 0 -24 -4l-9 12l19 73q-66 16 -104 69q-48 67 -48 180q0 151 84 221q56 50 130 50 q51 0 91 -21q21 -11 45 -32l-48 -62q-45 38 -88 38q-63 0 -88 -53q-24 -49 -24 -153t40 -143q28 -30 72 -30q58 0 104 51z" />
<glyph unicode="&#xe8;" horiz-adv-x="485" d="M453 231h-305v-12q0 -66 21 -100q38 -59 115 -59q69 0 123 48l35 -55q-73 -64 -173 -64q-104 0 -164 71t-60 194t60 194q59 69 151 69q84 0 136 -54q33 -34 46.5 -82t14.5 -134v-16zM357 299q0 74 -31 113q-28 35 -72 35q-52 0 -78.5 -39t-26.5 -109h208zM365 617 l-28 -54l-217 102l44 85z" />
<glyph unicode="&#xe9;" horiz-adv-x="485" d="M453 231h-305v-12q0 -66 21 -100q38 -59 115 -59q69 0 123 48l35 -55q-73 -64 -173 -64q-104 0 -164 71t-60 194t60 194q59 69 151 69q84 0 136 -54q33 -34 46.5 -82t14.5 -134v-16zM357 299q0 74 -31 113q-28 35 -72 35q-52 0 -78.5 -39t-26.5 -109h208zM395 665 l-217 -102l-29 54l201 133z" />
<glyph unicode="&#xea;" horiz-adv-x="485" d="M453 231h-305v-12q0 -66 21 -100q38 -59 115 -59q69 0 123 48l35 -55q-73 -64 -173 -64q-104 0 -164 71t-60 194t60 194q59 69 151 69q84 0 136 -54q33 -34 46.5 -82t14.5 -134v-16zM357 299q0 74 -31 113q-28 35 -72 35q-52 0 -78.5 -39t-26.5 -109h208zM430 609 l-36 -51l-138 86l-134 -86l-32 51l169 138z" />
<glyph unicode="&#xeb;" horiz-adv-x="485" d="M453 231h-305v-12q0 -66 21 -100q38 -59 115 -59q69 0 123 48l35 -55q-73 -64 -173 -64q-104 0 -164 71t-60 194t60 194q59 69 151 69q84 0 136 -54q33 -34 46.5 -82t14.5 -134v-16zM357 299q0 74 -31 113q-28 35 -72 35q-52 0 -78.5 -39t-26.5 -109h208zM428 627 q0 -26 -17 -44.5t-41 -18.5q-25 0 -42 18.5t-17 44.5t17 44t42 18q23 0 40.5 -18.5t17.5 -43.5zM220 627q0 -26 -17 -44.5t-42 -18.5q-24 0 -41 18.5t-17 44.5t17 44t41 18t41.5 -18.5t17.5 -43.5z" />
<glyph unicode="&#xec;" horiz-adv-x="255" d="M174 0h-95v498l95 15v-513zM234 617l-28 -54l-217 102l44 85z" />
<glyph unicode="&#xed;" horiz-adv-x="255" d="M174 0h-95v498l95 15v-513zM295 665l-217 -102l-29 54l201 133z" />
<glyph unicode="&#xee;" horiz-adv-x="255" d="M174 0h-95v498l95 15v-513zM303 609l-36 -51l-138 86l-134 -86l-32 51l169 138z" />
<glyph unicode="&#xef;" horiz-adv-x="255" d="M174 0h-95v498l95 15v-513zM298 627q0 -26 -17 -44.5t-41 -18.5q-25 0 -42 18.5t-17 44.5t17 44t42 18q23 0 40.5 -18.5t17.5 -43.5zM90 627q0 -26 -17 -44.5t-42 -18.5q-24 0 -41 18.5t-17 44.5t17 44t41 18t41.5 -18.5t17.5 -43.5z" />
<glyph unicode="&#xf1;" horiz-adv-x="533" d="M454 0h-91v338q0 56 -16 77q-15 20 -51 20q-27 0 -62.5 -18.5t-61.5 -45.5v-371h-91v373q0 70 -19 119l87 24q17 -34 17 -77q46 38 65 49q43 25 93 25q40 0 72.5 -19.5t45.5 -51.5q12 -27 12 -63v-379zM440 653q-27 -34 -52.5 -50t-65.5 -16q-31 0 -65.5 21t-63.5 21 q-21 0 -34.5 -9t-31.5 -29l-31 52q26 34 51.5 49.5t65.5 15.5q31 0 65.5 -20.5t63.5 -20.5q21 0 35 9t32 29z" />
<glyph unicode="&#xf2;" horiz-adv-x="535" d="M480 246q0 -119 -59 -189.5t-159 -70.5t-158.5 71.5t-58.5 193.5t58 193t157 71q107 0 163.5 -75t56.5 -194zM377 242q0 111 -29.5 156.5t-87.5 45.5q-60 0 -86.5 -44t-26.5 -139q0 -112 28.5 -158t88.5 -46q113 0 113 185zM365 617l-28 -54l-217 102l44 85z" />
<glyph unicode="&#xf3;" horiz-adv-x="535" d="M480 246q0 -119 -59 -189.5t-159 -70.5t-158.5 71.5t-58.5 193.5t58 193t157 71q107 0 163.5 -75t56.5 -194zM377 242q0 111 -29.5 156.5t-87.5 45.5q-60 0 -86.5 -44t-26.5 -139q0 -112 28.5 -158t88.5 -46q113 0 113 185zM413 665l-217 -102l-29 54l201 133z" />
<glyph unicode="&#xf4;" horiz-adv-x="535" d="M480 246q0 -119 -59 -189.5t-159 -70.5t-158.5 71.5t-58.5 193.5t58 193t157 71q107 0 163.5 -75t56.5 -194zM377 242q0 111 -29.5 156.5t-87.5 45.5q-60 0 -86.5 -44t-26.5 -139q0 -112 28.5 -158t88.5 -46q113 0 113 185zM434 609l-36 -51l-138 86l-134 -86l-32 51 l169 138z" />
<glyph unicode="&#xf5;" horiz-adv-x="535" d="M480 246q0 -119 -59 -189.5t-159 -70.5t-158.5 71.5t-58.5 193.5t58 193t157 71q107 0 163.5 -75t56.5 -194zM377 242q0 111 -29.5 156.5t-87.5 45.5q-60 0 -86.5 -44t-26.5 -139q0 -112 28.5 -158t88.5 -46q113 0 113 185zM440 653q-27 -34 -52.5 -50t-65.5 -16 q-31 0 -65.5 21t-63.5 21q-21 0 -34.5 -9t-31.5 -29l-31 52q26 34 51.5 49.5t65.5 15.5q31 0 65.5 -20.5t63.5 -20.5q21 0 35 9t32 29z" />
<glyph unicode="&#xf6;" horiz-adv-x="535" d="M480 246q0 -119 -59 -189.5t-159 -70.5t-158.5 71.5t-58.5 193.5t58 193t157 71q107 0 163.5 -75t56.5 -194zM377 242q0 111 -29.5 156.5t-87.5 45.5q-60 0 -86.5 -44t-26.5 -139q0 -112 28.5 -158t88.5 -46q113 0 113 185zM424 627q0 -26 -17 -44.5t-41 -18.5 q-25 0 -42 18.5t-17 44.5t17 44t42 18q23 0 40.5 -18.5t17.5 -43.5zM216 627q0 -26 -17 -44.5t-42 -18.5q-24 0 -41 18.5t-17 44.5t17 44t41 18t41.5 -18.5t17.5 -43.5z" />
<glyph unicode="&#xf7;" horiz-adv-x="841" d="M785 655q0 -27 -19.5 -46.5t-46.5 -19.5t-46 19.5t-19 46.5q0 28 19 47.5t46 19.5t46.5 -19.5t19.5 -47.5zM766 0h-95v436h-203v-436h-93v436h-194v-436h-93v436h-48v65h49q0 5 -1 40.5t-1 39.5q0 83 57 125q32 24 90 24q65 0 109 -27l-31 -60q-38 19 -65 19 q-32 0 -49.5 -21t-17.5 -59v-81h196q0 5 -1 41t-1 39q0 84 57 125q34 24 90 24q67 0 106 -24l-31 -60q-34 16 -62 16q-32 0 -49 -21t-17 -59v-81h298v-501z" />
<glyph unicode="&#xf8;" horiz-adv-x="551" d="M491 246q0 -131 -72 -203q-58 -58 -146 -58q-64 0 -109 31l-52 -88l-47 28l55 95q-64 73 -64 200q0 122 58 193t157 71q61 0 110 -26l52 88l48 -29l-57 -95q67 -73 67 -207zM340 420q-30 24 -69 24q-31 0 -56.5 -15t-36.5 -40q-20 -46 -20 -128q0 -68 16 -122zM388 242 q0 68 -17 121l-167 -282q35 -25 71 -25q73 0 99 81q14 45 14 105z" />
<glyph unicode="&#xf9;" horiz-adv-x="543" d="M483 33l-63 -50q-35 27 -47 72q-59 -72 -151 -72q-48 0 -83.5 20t-51.5 55q-12 27 -12 84v356l91 18v-349q0 -38 5 -56.5t18 -31.5q24 -22 58 -22q33 0 65.5 23t48.5 56v360l91 18v-377q0 -78 31 -104zM388 617l-28 -54l-217 102l44 85z" />
<glyph unicode="&#xfa;" horiz-adv-x="543" d="M483 33l-63 -50q-35 27 -47 72q-59 -72 -151 -72q-48 0 -83.5 20t-51.5 55q-12 27 -12 84v356l91 18v-349q0 -38 5 -56.5t18 -31.5q24 -22 58 -22q33 0 65.5 23t48.5 56v360l91 18v-377q0 -78 31 -104zM406 665l-217 -102l-29 54l201 133z" />
<glyph unicode="&#xfb;" horiz-adv-x="543" d="M483 33l-63 -50q-35 27 -47 72q-59 -72 -151 -72q-48 0 -83.5 20t-51.5 55q-12 27 -12 84v356l91 18v-349q0 -38 5 -56.5t18 -31.5q24 -22 58 -22q33 0 65.5 23t48.5 56v360l91 18v-377q0 -78 31 -104zM437 609l-36 -51l-138 86l-134 -86l-32 51l169 138z" />
<glyph unicode="&#xfc;" horiz-adv-x="543" d="M483 33l-63 -50q-35 27 -47 72q-59 -72 -151 -72q-48 0 -83.5 20t-51.5 55q-12 27 -12 84v356l91 18v-349q0 -38 5 -56.5t18 -31.5q24 -22 58 -22q33 0 65.5 23t48.5 56v360l91 18v-377q0 -78 31 -104zM427 627q0 -26 -17 -44.5t-41 -18.5q-25 0 -42 18.5t-17 44.5t17 44 t42 18q23 0 40.5 -18.5t17.5 -43.5zM219 627q0 -26 -17 -44.5t-42 -18.5q-24 0 -41 18.5t-17 44.5t17 44t41 18t41.5 -18.5t17.5 -43.5z" />
<glyph unicode="&#xfd;" horiz-adv-x="475" d="M325 677l-217 -102l-29 54l201 133zM464 501l-175 -517q-39 -116 -85 -154q-38 -32 -93 -43l-29 60q51 13 87 57q19 24 41 98l-36 -5q-16 73 -48 167l-111 329l93 21l96 -315q16 -56 29 -118h6q14 60 34 124l89 296h102z" />
<glyph unicode="&#xff;" horiz-adv-x="475" d="M464 501l-175 -517q-39 -116 -85 -154q-38 -32 -93 -43l-29 60q51 13 87 57q19 24 41 98l-36 -5q-16 73 -48 167l-111 329l93 21l96 -315q16 -56 29 -118h6q14 60 34 124l89 296h102zM401 627q0 -26 -17 -44.5t-41 -18.5q-25 0 -42 18.5t-17 44.5t17 44t42 18 q23 0 40.5 -18.5t17.5 -43.5zM193 627q0 -26 -17 -44.5t-42 -18.5q-24 0 -41 18.5t-17 44.5t17 44t41 18t41.5 -18.5t17.5 -43.5z" />
<glyph unicode="&#x131;" horiz-adv-x="255" d="M174 0h-95v498l95 15v-513z" />
<glyph unicode="&#x152;" horiz-adv-x="851" d="M808 0h-427q-96 0 -142.5 10.5t-95.5 49.5q-106 85 -106 285q0 157 74 250q56 70 138 87q35 7 104 7h440l-12 -79h-265v-210h221v-81h-221v-236h292v-83zM422 85v514q-7 1 -24 3t-33 3.5t-30 1.5q-36 0 -63 -6q-58 -14 -87 -67q-37 -68 -37 -178q0 -155 50 -218 q48 -62 125 -62q43 0 99 9z" />
<glyph unicode="&#x153;" horiz-adv-x="833" d="M787 231h-305v-25q0 -72 37.5 -109t97.5 -37q70 0 124 48l34 -55q-71 -64 -172 -64q-51 0 -95.5 19.5t-68.5 57.5q-57 -80 -165 -80q-100 0 -158.5 71.5t-58.5 193.5t58 193t157 71q101 0 162 -76q51 78 155 78q97 0 147.5 -64t50.5 -184v-38zM691 299q0 68 -26.5 108 t-76.5 40t-77.5 -37.5t-27.5 -110.5h208zM389 242q0 111 -29.5 156.5t-87.5 45.5q-59 0 -86 -42.5t-27 -140.5q0 -107 27 -155.5t90 -48.5q113 0 113 185z" />
<glyph unicode="&#x178;" horiz-adv-x="537" d="M531 689l-220 -415v-274h-100v276l-218 413h118l114 -235q24 -50 38 -89q20 47 40 88l116 236h112zM442 787q0 -26 -17 -44.5t-41 -18.5q-25 0 -42 18.5t-17 44.5t17 44t42 18q23 0 40.5 -18.5t17.5 -43.5zM234 787q0 -26 -17 -44.5t-42 -18.5q-24 0 -41 18.5t-17 44.5 t17 44t41 18t41.5 -18.5t17.5 -43.5z" />
<glyph unicode="&#x2c6;" horiz-adv-x="402" d="M366 609l-36 -51l-138 86l-134 -86l-32 51l169 138z" />
<glyph unicode="&#x2da;" horiz-adv-x="315" d="M254 660q0 -43 -30.5 -74.5t-72.5 -31.5q-41 0 -70.5 31.5t-29.5 74.5t30.5 74.5t71.5 31.5t71 -31.5t30 -74.5zM212 660q0 26 -17.5 44.5t-40.5 18.5q-26 0 -44 -18.5t-18 -44.5t17.5 -44.5t41.5 -18.5q25 0 43 18.5t18 44.5z" />
<glyph unicode="&#x2dc;" horiz-adv-x="383" d="M358 653q-27 -34 -52.5 -50t-65.5 -16q-31 0 -65.5 21t-63.5 21q-21 0 -34.5 -9t-31.5 -29l-31 52q26 34 51.5 49.5t65.5 15.5q31 0 65.5 -20.5t63.5 -20.5q21 0 35 9t32 29z" />
<glyph unicode="&#x3bc;" horiz-adv-x="536" d="M486 35l-62 -49q-35 27 -47 72q-59 -72 -151 -72q-34 0 -58 23q0 -6 1 -19.5t1 -21.5l5 -157l-97 -22v709l92 19v-348q0 -67 23 -87q24 -22 58 -22t66 22.5t48 56.5v357l90 18v-367q0 -53 14 -87q6 -15 17 -25z" />
<glyph unicode="&#x2013;" horiz-adv-x="481" d="M481 240h-481v75h481v-75z" />
<glyph unicode="&#x2014;" horiz-adv-x="960" d="M829 240h-705v75h705v-75z" />
<glyph unicode="&#x2018;" horiz-adv-x="263" d="M49 536q0 58 35.5 106t89.5 71l32 -45q-27 -11 -46 -33t-19 -42q0 -4 1.5 -7t5 -6t6.5 -4.5l9 -4.5t9 -5q33 -19 33 -58q0 -32 -21 -53.5t-52 -21.5q-36 0 -59.5 29t-23.5 74z" />
<glyph unicode="&#x2019;" horiz-adv-x="262" d="M202 601q0 -58 -35.5 -106t-89.5 -71l-32 45q27 11 46 33t19 42q0 4 -1.5 7t-5 6t-6.5 4.5l-9 4.5t-9 5q-33 19 -33 58q0 32 21 53.5t52 21.5q36 0 59.5 -29t23.5 -74z" />
<glyph unicode="&#x201a;" horiz-adv-x="267" d="M209 34q0 -58 -35.5 -106t-89.5 -71l-32 45q27 11 46 33t19 42q0 4 -1.5 7t-5 6t-6.5 4.5l-9 4.5t-9 5q-33 19 -33 58q0 32 21 53.5t52 21.5q36 0 59.5 -29t23.5 -74z" />
<glyph unicode="&#x201c;" horiz-adv-x="464" d="M49 536q0 58 35.5 106t89.5 71l32 -45q-27 -11 -46 -33t-19 -42q0 -4 1.5 -7t5 -6t6.5 -4.5l9 -4.5t9 -5q33 -19 33 -58q0 -32 -21 -53.5t-52 -21.5q-36 0 -59.5 29t-23.5 74zM256 536q0 58 35.5 106t89.5 71l32 -45q-27 -11 -46 -33t-19 -42q0 -4 1.5 -7t5 -6t6.5 -4.5 l9 -4.5t9 -5q33 -19 33 -58q0 -32 -21 -53.5t-52 -21.5q-36 0 -59.5 29t-23.5 74z" />
<glyph unicode="&#x201d;" horiz-adv-x="464" d="M409 601q0 -58 -35.5 -106t-89.5 -71l-32 45q27 11 46 33t19 42q0 4 -1.5 7t-5 6t-6.5 4.5l-9 4.5t-9 5q-33 19 -33 58q0 32 21 53.5t52 21.5q36 0 59.5 -29t23.5 -74zM202 601q0 -58 -35.5 -106t-89.5 -71l-32 45q27 11 46 33t19 42q0 4 -1.5 7t-5 6t-6.5 4.5l-9 4.5 t-9 5q-33 19 -33 58q0 32 21 53.5t52 21.5q36 0 59.5 -29t23.5 -74z" />
<glyph unicode="&#x201e;" horiz-adv-x="469" d="M208 34q0 -58 -35.5 -106t-89.5 -71l-32 45q27 11 46 33t19 42q0 4 -1.5 7t-5 6t-6.5 4.5l-9 4.5t-9 5q-33 19 -33 58q0 32 21 53.5t52 21.5q36 0 59.5 -29t23.5 -74zM417 34q0 -58 -35.5 -106t-89.5 -71l-32 45q27 11 46 33t19 42q0 4 -1.5 7t-5 6t-6.5 4.5l-9 4.5t-9 5 q-33 19 -33 58q0 32 21 53.5t52 21.5q36 0 59.5 -29t23.5 -74z" />
<glyph unicode="&#x2022;" horiz-adv-x="500" d="M420 355q0 -73 -51 -125t-123 -52t-122.5 51.5t-50.5 125.5t50.5 125.5t122.5 51.5t123 -52t51 -125z" />
<glyph unicode="&#x2026;" horiz-adv-x="703" d="M661 63q0 -31 -21.5 -54t-50.5 -23q-30 0 -50.5 22.5t-20.5 54.5q0 31 20.5 52t49.5 21q30 0 51.5 -21t21.5 -52zM423 63q0 -32 -21 -54.5t-50 -22.5q-30 0 -50.5 22.5t-20.5 54.5q0 31 20 52t49 21q31 0 52 -21t21 -52zM186 63q0 -31 -21 -54t-50 -23q-30 0 -51 22.5 t-21 54.5q0 31 20.5 52t49.5 21q30 0 51.5 -21t21.5 -52z" />
<glyph unicode="&#x2039;" horiz-adv-x="315" d="M261 65l-62 -42l-146 221l146 222l63 -44l-116 -178z" />
<glyph unicode="&#x203a;" horiz-adv-x="315" d="M261 244l-146 -221l-62 42l117 179l-118 177l63 45z" />
<glyph unicode="&#x2044;" horiz-adv-x="338" d="M494 764l-524 -917h-73l523 917h74z" />
<glyph unicode="&#x2122;" horiz-adv-x="1001" d="M938 296h-75v324l-8 -2l-122 -322h-50l-123 322l-6 1v-323h-75v412h114l116 -305l116 305h113v-412zM388 637h-126v-341h-75v341h-126v71h327v-71z" />
</font>
</defs>
</svg>
